<svg id="Capa_1" data-name="Capa 1" xmlns="http://www.w3.org/2000/svg" viewBox="0 0 120 35">
	<defs>
		<style>
			.cls-1 {
			fill: #fff;
			}
			
			.cls-2 {
			fill: #0071bc;
			}
			
			.cls-3 {
			fill: #666;
			}
		</style>
	</defs>
	<path id="Unión_7-2" data-name="Unión 7-2" class="cls-1" d="M33.7,34.9H-.2L14,5.4A8.9,8.9,0,0,1,21.9-.1H97.7a8.9,8.9,0,0,1,7.9,5.5l14.2,29.5Z" />
	<g id="Grupo_74" data-name="Grupo 74">
		<g id="Grupo_8" data-name="Grupo 8">
			<path id="Trazado_15" data-name="Trazado 15" class="cls-2" d="M33.1,22.6H30.8l-1-2.8H26.1l-1,2.8H23.4l3.8-10.2h2.1Zm-3.8-4.2L28,14.6l-1.4,3.8Z" />
			<path id="Trazado_16" data-name="Trazado 16" class="cls-2" d="M42.8,22a7.2,7.2,0,0,1-3.5.8,4.9,4.9,0,0,1-3.7-1.6,5.6,5.6,0,0,1-1.3-3.7,5.3,5.3,0,0,1,1.4-3.8,4.4,4.4,0,0,1,3.6-1.5,5.9,5.9,0,0,1,3.1.9v1.2a5.3,5.3,0,0,0-2.4-.6,3.6,3.6,0,0,0-2.6,1.1,3.9,3.9,0,0,0-1,2.7,4.3,4.3,0,0,0,.8,2.7,2.6,2.6,0,0,0,2.4,1.1,8.7,8.7,0,0,0,3.2-.6Z" />
			<path id="Trazado_17" data-name="Trazado 17" class="cls-2" d="M52.7,22a7.2,7.2,0,0,1-3.5.8,4.7,4.7,0,0,1-3.7-1.6,5.1,5.1,0,0,1-1.3-3.7,4.9,4.9,0,0,1,1.4-3.8,4.4,4.4,0,0,1,3.6-1.5,5.9,5.9,0,0,1,3.1.9v1.2a5.3,5.3,0,0,0-2.4-.6,3.6,3.6,0,0,0-2.6,1.1,4,4,0,0,0-1,2.8,3.7,3.7,0,0,0,.8,2.6,2.6,2.6,0,0,0,2.4,1.1,8.7,8.7,0,0,0,3.2-.6Z" />
			<path id="Trazado_18" data-name="Trazado 18" class="cls-2" d="M63.3,18.5a4.6,4.6,0,0,1-1,3.2,4,4,0,0,1-3.1,1.1q-4.2,0-4.2-4.2V12.4h2.1v5.9a5.4,5.4,0,0,0,.4,2.2,2.2,2.2,0,0,0,3.6,0,4.1,4.1,0,0,0,.3-2.2V12.4h1.9Z" />
			<path id="Trazado_19" data-name="Trazado 19" class="cls-2" d="M72.6,19.7A2.7,2.7,0,0,1,71.4,22a3.8,3.8,0,0,1-2.5.8l-1.7-.2a4.4,4.4,0,0,1-1.6-.6V20.5a4.7,4.7,0,0,0,1.5.6,4.5,4.5,0,0,0,1.6.3,2.8,2.8,0,0,0,1.3-.3,1.1,1.1,0,0,0,.6-1q0-.9-1.2-1.5L67,17.5a2.8,2.8,0,0,1-1.3-2.4A2.6,2.6,0,0,1,66.8,13a3.1,3.1,0,0,1,2.4-.8,5.8,5.8,0,0,1,2.8.7V14a5.2,5.2,0,0,0-2.1-.4,3.2,3.2,0,0,0-1.4.3,1.1,1.1,0,0,0-.8,1.1c0,.4.4.8,1.3,1.2l2.3,1.2A2.6,2.6,0,0,1,72.6,19.7Z" />
			<path id="Trazado_20" data-name="Trazado 20" class="cls-2" d="M82.9,12.4l-3.7,5.9v4.3H77.1V18.5l-3.5-6.1h2.3l2.5,4.5,2.8-4.5Z" />
			<path id="Trazado_21" data-name="Trazado 21" class="cls-2" d="M90.8,19.7A2.7,2.7,0,0,1,89.6,22a3.8,3.8,0,0,1-2.5.8l-1.7-.2a4.4,4.4,0,0,1-1.6-.6V20.5a4.7,4.7,0,0,0,1.5.6,4.5,4.5,0,0,0,1.6.3,2.8,2.8,0,0,0,1.3-.3,1.1,1.1,0,0,0,.6-1q0-.9-1.2-1.5l-2.4-1.1a2.8,2.8,0,0,1-1.3-2.4A2.6,2.6,0,0,1,85,13a3.1,3.1,0,0,1,2.4-.8,5.8,5.8,0,0,1,2.8.7V14a5.2,5.2,0,0,0-2.1-.4,3.2,3.2,0,0,0-1.4.3,1.1,1.1,0,0,0-.8,1.1c0,.4.4.8,1.3,1.2l2.3,1.2A2.6,2.6,0,0,1,90.8,19.7Z" />
		</g>
		<g id="Grupo_9" data-name="Grupo 9">
			<path id="Trazado_22" data-name="Trazado 22" class="cls-3" d="M65.5,24.8h-.9v2.6h-.4V24.8h-1v-.3h2.3Z" />
			<path id="Trazado_23" data-name="Trazado 23" class="cls-3" d="M67.8,27.4H66.1V24.5h1.7v.3H66.4v1h1.3v.3H66.4v1.1h1.4Z" />
			<path id="Trazado_24" data-name="Trazado 24" class="cls-3" d="M70.6,27.2l-.5.2h-.5a1.2,1.2,0,0,1-.9-.5,1.3,1.3,0,0,1-.4-1,1.5,1.5,0,0,1,.4-1.1,1.1,1.1,0,0,1,.9-.4,1.4,1.4,0,0,1,.9.3V25l-.4-.2h-.5a1,1,0,0,0-.7.4,1.5,1.5,0,0,0-.2.9,1.5,1.5,0,0,0,.2.9,1.2,1.2,0,0,0,.8.4,1.6,1.6,0,0,0,.9-.3Z" />
			<path id="Trazado_25" data-name="Trazado 25" class="cls-3" d="M73.4,27.4H73V26.1H71.5v1.3h-.3V24.5h.3v1.3H73V24.5h.4Z" />
			<path id="Trazado_26" data-name="Trazado 26" class="cls-3" d="M76.5,27.4h-.4L74.6,25v2.4h-.3V24.5h.3L76.2,27V24.5h.3Z" />
			<path id="Trazado_27" data-name="Trazado 27" class="cls-3" d="M79.8,26a1.3,1.3,0,0,1-.4,1,1.2,1.2,0,0,1-1.7.2l-.2-.2a1.8,1.8,0,0,1,0-2,1.2,1.2,0,0,1,1.7-.3c.1.1.2.2.2.3A1.8,1.8,0,0,1,79.8,26Zm-.4,0a1.5,1.5,0,0,0-.2-.9.9.9,0,0,0-1.2-.3l-.3.3a1.4,1.4,0,0,0-.1.9,1,1,0,0,0,.2.9.7.7,0,0,0,1.1.2l.3-.2a1.5,1.5,0,0,0,.2-.9Z" />
			<path id="Trazado_28" data-name="Trazado 28" class="cls-3" d="M82.1,27.4H80.5V24.5h.3v2.7h1.3Z" />
			<path id="Trazado_29" data-name="Trazado 29" class="cls-3" d="M85,26a1.7,1.7,0,0,1-.3,1,1.2,1.2,0,0,1-1,.5,1.2,1.2,0,0,1-.9-.5,1.2,1.2,0,0,1-.3-1,1.2,1.2,0,0,1,.3-1,1.1,1.1,0,0,1,1.6-.3l.3.3A1.7,1.7,0,0,1,85,26Zm-.3,0a2.9,2.9,0,0,0-.2-.9,1,1,0,0,0-1.2-.3l-.3.3a2.9,2.9,0,0,0-.2.9,2.9,2.9,0,0,0,.2.9.8.8,0,0,0,1.2.2l.3-.2a2.9,2.9,0,0,0,.2-.9Z" />
			<path id="Trazado_30" data-name="Trazado 30" class="cls-3" d="M87.8,27.3l-1,.2a1.2,1.2,0,0,1-.9-.5,1.3,1.3,0,0,1-.4-1,1.5,1.5,0,0,1,.4-1.1,1.1,1.1,0,0,1,.9-.4,1.2,1.2,0,0,1,.9.3V25l-.4-.2h-.4a1,1,0,0,0-.8.4,1.5,1.5,0,0,0-.2.9,2.9,2.9,0,0,0,.2.9.8.8,0,0,0,.8.3h.6v-1h.3Z" />
			<path id="Trazado_31" data-name="Trazado 31" class="cls-3" d="M90.4,24.5l-1,1.8v1.1h-.3V26.3l-.9-1.8h.3l.8,1.5.8-1.5Z" />
		</g>
	</g>
</svg>
