<svg id="Capa_1" data-name="Capa 1" xmlns="http://www.w3.org/2000/svg" viewBox="0 0 475.6 535.6">
  <defs>
    <style>
      .cls-1 {
        opacity: 0.57;
      }

      .cls-2 {
        fill: #fe8137;
      }

      .cls-3 {
        fill: #4135ec;
      }

      .cls-4 {
        fill: #fac13c;
      }

      .cls-5 {
        fill: #fe79d6;
      }

      .cls-6 {
        fill: #fec133;
      }

      .cls-7 {
        fill: #f0f1f3;
      }

      .cls-8 {
        fill: #93bdf9;
      }

      .cls-9 {
        fill: #3529d4;
      }

      .cls-10 {
        fill: #cdf5fb;
      }

      .cls-11 {
        fill: #dedfe1;
      }

      .cls-12 {
        fill: #7e81f3;
      }

      .cls-13 {
        fill: #fb5dce;
      }

      .cls-14 {
        fill: #b8e9fb;
      }

      .cls-15 {
        fill: #db55af;
      }

      .cls-16 {
        fill: #7c73ea;
      }

      .cls-17 {
        fill: #edfafb;
      }

      .cls-18 {
        fill: #162c65;
      }

      .cls-19 {
        fill: #3e33e0;
      }

      .cls-20 {
        fill: #3b31e1;
      }

      .cls-21 {
        fill: #4334e3;
      }

      .cls-22 {
        fill: #f69963;
      }

      .cls-23 {
        fill: #f6827c;
      }

      .cls-24 {
        fill: #ebb366;
      }

      .cls-25 {
        fill: #335bee;
      }

      .cls-26 {
        fill: #e8ca75;
      }

      .cls-27 {
        fill: #fac138;
      }

      .cls-28 {
        fill: #16a0f7;
      }

      .cls-29 {
        fill: #2778f3;
      }

      .cls-30 {
        fill: #c082ab;
      }

      .cls-31 {
        fill: #483fad;
      }

      .cls-32 {
        fill: #c971b7;
      }

      .cls-33 {
        fill: #325df0;
      }

      .cls-34 {
        fill: #172f6b;
      }

      .cls-35 {
        fill: #1f8df5;
      }

      .cls-36 {
        fill: #0bcef7;
      }

      .cls-37 {
        fill: #10b5f8;
      }

      .cls-38 {
        fill: #cbd9de;
      }

      .cls-39 {
        fill: #f556c9;
      }

      .cls-40 {
        fill: #2875f3;
      }

      .cls-41 {
        fill: #e49383;
      }

      .cls-42 {
        fill: #392978;
      }

      .cls-43 {
        fill: #0ad3f7;
      }

      .cls-44 {
        fill: #8ba3f3;
      }

      .cls-45 {
        fill: #aadbfa;
      }

      .cls-46 {
        fill: #f76e1e;
      }

      .cls-47 {
        fill: #d2d8db;
      }

      .cls-48 {
        fill: #1d2b6d;
      }

      .cls-49 {
        fill: #f549b6;
      }

      .cls-50 {
        fill: #de729c;
      }

      .cls-51 {
        fill: #f5c76a;
      }

      .cls-52 {
        fill: #463fc2;
      }

      .cls-53 {
        fill: #4252d0;
      }

      .cls-54 {
        fill: #e28161;
      }

      .cls-55 {
        fill: #e9c4b7;
      }

      .cls-56 {
        fill: #4138bc;
      }

      .cls-57 {
        fill: #eeb247;
      }

      .cls-58 {
        fill: #e7c14a;
      }

      .cls-59 {
        fill: #472a6a;
      }

      .cls-60 {
        fill: #c66ec7;
      }

      .cls-61 {
        fill: #cfae75;
      }

      .cls-62 {
        fill: #bf69d9;
      }

      .cls-63 {
        fill: #d3b467;
      }

      .cls-64 {
        fill: #d67853;
      }

      .cls-65 {
        fill: #ea9ac8;
      }

      .cls-66 {
        fill: #a58f5e;
      }

      .cls-67 {
        fill: #e9c162;
      }

      .cls-68 {
        fill: #a99c73;
      }

      .cls-69 {
        fill: #e8c783;
      }

      .cls-70 {
        fill: #b363c9;
      }

      .cls-71 {
        fill: #c1bdc4;
      }

      .cls-72 {
        fill: #f8f7f8;
      }

      .cls-73 {
        fill: #4237c6;
      }

      .cls-74 {
        fill: #1ba0ea;
      }

      .cls-75 {
        fill: #256edd;
      }

      .cls-76 {
        fill: #1f8ce2;
      }

      .cls-77 {
        fill: #a4d3f8;
      }

      .cls-78 {
        fill: #859cf5;
      }

      .cls-79 {
        fill: #0ccdf4;
      }

      .cls-80 {
        fill: #f7f7f5;
      }

      .cls-81 {
        fill: #3933cf;
      }

      .cls-82 {
        fill: #2f56d6;
      }

      .cls-83 {
        fill: #fdfefd;
      }

      .cls-84 {
        fill: #cdf5fc;
      }

      .cls-85 {
        fill: #b9c7eb;
      }

      .cls-86 {
        fill: #6277ac;
      }

      .cls-87 {
        fill: #2b6ff2;
      }

      .cls-88 {
        fill: #2680f2;
      }

      .cls-89 {
        fill: #2679f4;
      }

      .cls-90 {
        fill: #f6f9f6;
      }

      .cls-91 {
        fill: #7a6190;
      }

      .cls-92 {
        fill: #9e9afa;
      }

      .cls-93 {
        fill: #f4f8f7;
      }

      .cls-94 {
        fill: #cec3a3;
      }

      .cls-95 {
        fill: #efeae7;
      }

      .cls-96 {
        fill: #3a6ad8;
      }

      .cls-97 {
        fill: #dbc9b7;
      }

      .cls-98 {
        fill: #b8d6fb;
      }

      .cls-99 {
        fill: #c1f2f9;
      }

      .cls-100 {
        fill: #315ef0;
      }

      .cls-101 {
        fill: #f8ba0b;
      }

      .cls-102 {
        fill: #522953;
      }

      .cls-103 {
        fill: #dec0c6;
      }

      .cls-104 {
        fill: #f5792e;
      }

      .cls-105 {
        fill: #4137e6;
      }

      .cls-106 {
        fill: #dae9f9;
      }

      .cls-107 {
        fill: #fefefe;
      }

      .cls-108 {
        fill: #cc94ad;
      }

      .cls-109 {
        fill: #3955c9;
      }

      .cls-110 {
        fill: #b0edfc;
      }

      .cls-111 {
        fill: #f4f9f6;
      }

      .cls-112 {
        fill: #c2fbfb;
      }

      .cls-113 {
        fill: #f4f3fb;
      }

      .cls-114 {
        fill: #adb1e5;
      }

      .cls-115 {
        fill: #3555ef;
      }

      .cls-116 {
        fill: #2b6ff0;
      }

      .cls-117 {
        fill: #3260ef;
      }

      .cls-118 {
        fill: #2389f2;
      }

      .cls-119 {
        fill: #e4d7d7;
      }

      .cls-120 {
        fill: #277cf2;
      }

      .cls-121 {
        fill: #345aec;
      }

      .cls-122 {
        fill: #189ff6;
      }

      .cls-123 {
        fill: #f1f4fa;
      }

      .cls-124 {
        fill: #eef6f9;
      }

      .cls-125 {
        fill: #d88258;
      }

      .cls-126 {
        fill: #d489e1;
      }

      .cls-127 {
        fill: #3742df;
      }

      .cls-128 {
        fill: #5776be;
      }

      .cls-129 {
        fill: #d87c5e;
      }

      .cls-130 {
        fill: #4968ba;
      }

      .cls-131 {
        fill: #10b7f5;
      }

      .cls-132 {
        fill: #d07463;
      }

      .cls-133 {
        fill: #1eb0ed;
      }

      .cls-134 {
        fill: #6092bd;
      }

      .cls-135 {
        fill: #ab8ed6;
      }

      .cls-136 {
        fill: #06d3fa;
      }

      .cls-137 {
        fill: #19a0f5;
      }

      .cls-138 {
        fill: #d1c8d2;
      }

      .cls-139 {
        fill: #cad0da;
      }

      .cls-140 {
        fill: #3e85bf;
      }

      .cls-141 {
        fill: #2972cc;
      }

      .cls-142 {
        fill: #4f94b9;
      }

      .cls-143 {
        fill: #bbf4fc;
      }

      .cls-144 {
        fill: #30cde0;
      }

      .cls-145 {
        fill: #54cade;
      }

      .cls-146 {
        fill: #1e8ef7;
      }

      .cls-147 {
        fill: #7e56d0;
      }

      .cls-148 {
        fill: #8c68c0;
      }

      .cls-149 {
        fill: #162e74;
      }

      .cls-150 {
        fill: #cdd8fe;
      }

      .cls-151 {
        fill: #7ba7f9;
      }

      .cls-152 {
        fill: #7b62e7;
      }

      .cls-153 {
        fill: #9abfcd;
      }

      .cls-154 {
        fill: #a3b8dc;
      }

      .cls-155 {
        fill: #8e66e9;
      }

      .cls-156 {
        fill: #9ac8f9;
      }

      .cls-157 {
        fill: #fbb246;
      }

      .cls-158 {
        fill: #fd9068;
      }

      .cls-159 {
        fill: #fa817c;
      }

      .cls-160 {
        fill: #fca551;
      }

      .cls-161 {
        fill: #0dd4f7;
      }

      .cls-162 {
        fill: #eef6f7;
      }

      .cls-163 {
        fill: #f0f6fb;
      }

      .cls-164 {
        fill: #f1f6f9;
      }

      .cls-165 {
        fill: #fce2c1;
      }

      .cls-166 {
        fill: #fdd5fb;
      }

      .cls-167 {
        fill: #c1bef8;
      }

      .cls-168 {
        fill: #dec377;
      }

      .cls-169 {
        fill: #b5eafa;
      }

      .cls-170 {
        fill: #f8c851;
      }

      .cls-171 {
        fill: #0bbafb;
      }

      .cls-172 {
        fill: #cafbfb;
      }

      .cls-173 {
        fill: #bdedfb;
      }

      .cls-174 {
        fill: #3558ef;
      }

      .cls-175 {
        fill: #277cf3;
      }

      .cls-176 {
        fill: #3471ee;
      }

      .cls-177 {
        fill: #17a5f7;
      }

      .cls-178 {
        fill: #0fbef9;
      }

      .cls-179 {
        fill: #332ed4;
      }

      .cls-180 {
        fill: #e75dc8;
      }

      .cls-181 {
        fill: #bdd2ed;
      }

      .cls-182 {
        fill: #d399cf;
      }

      .cls-183 {
        fill: #f6ebb1;
      }

      .cls-184 {
        fill: #dd8149;
      }
    </style>
  </defs>
  <g id="Grupo_71" data-name="Grupo 71" class="cls-1">
    <path id="Trazado_702" data-name="Trazado 702" class="cls-2" d="M21.1,362.8C0,373.4-2.4,390.6,1,409.6c1-.9,1.1-2,1.3-3.9,3.5,7.7,9.7,11.9,15.8,16.4,2.5,1.9,4.4,3.8,3.9,7.3-.2,1.9-.1,4.2,2.7,4.6,3.1-2.2.7-6.1,2.6-8.7,13.1-9,27.4-16.2,41-24.5,2.9-1.7,7.4-2.1,7.5-6.9-5.1-4.4-11.2-7.1-16.9-10.4-10.1-5.7-19.9-11.9-30.1-17.4C26.3,364.8,24.1,362.9,21.1,362.8Z"/>
    <path id="Trazado_703" data-name="Trazado 703" class="cls-3" d="M146.3,363.9a29,29,0,0,0-10.5-10.1c-3.4-1.7-6.4-.2-9.4,1.4-12.9,6.8-25.5,14.3-38.1,21.8-1.7,1.1-3.6,1.7-5.3,2.7-4,2.4-4.3,5.3-.9,8.5a27,27,0,0,0,5.2,3c12.7,6.6,25,14.1,37.6,21,2,1.2,4,1.8,6.2.6,7.4-4,14.4-8.6,18-16.6,4.4-9.7,3.1-19.3-1.2-28.8C147.4,366.3,146.2,365.3,146.3,363.9Z"/>
    <path id="Trazado_704" data-name="Trazado 704" class="cls-4" d="M472.9,425.8c2.6-3,2.8-6.7,2.8-10.3.1-58.4.3-116.7.1-175.1-.1-12.5-6-22.9-15.9-30.3-8.4-6.3-18-10.9-27.4-15.5-4.2-.2-7.4,1.3-9.4,5.2,1.2,4,5.2,4.8,8.2,6.6s7.6,4.8,11.6,6.7c12.1,5.9,19.1,15.6,22.2,28.4a27.2,27.2,0,0,1,.3,7c0,36.4-.1,72.8.1,109.2.1,9.5-1.9,18.9-1,28.4s-.3,16.4.7,24.7c.7,5.7.1,11.6-3.3,16.7-1,1.5-1.6,3.3-.4,4.7s2.5-.5,3.7-1C468.1,429.8,471,428.6,472.9,425.8Z"/>
    <path id="Trazado_705" data-name="Trazado 705" class="cls-5" d="M75.2,393.9c-.6,3.7-4.2,4.1-6.5,5.4-14.3,8.1-28.6,16.1-42.5,24.9-.1,2.5,1.7,3.4,3.6,4.3a97.9,97.9,0,0,0,35.7,8.6c14.7.6,29.4.7,43.7-3.7,3.6-1.1,7-2.4,10.4-3.7s5.1-1.6,5.4,3.2c.1,1.5-.2,3.1,1.5,3.9a2.1,2.1,0,0,0,2-.8c.9-3.2.2-6.3.1-9.5s-2.4-4.5-4.8-5.8c-13.7-7.7-27.3-15.4-40.9-23.4a58.7,58.7,0,0,1-6.5-4.6C75.5,392.6,75,392.9,75.2,393.9Z"/>
    <path id="Trazado_706" data-name="Trazado 706" class="cls-6" d="M75.2,393.9l.9-.7a3.5,3.5,0,0,0,1.4-3.5c-.6-5.4,2.6-8.2,6.9-10.3,11.2-5.7,21.6-12.8,32.6-18.9,1.1-.6,3.2-.7,2.6-2.9-3-3.8-7.7-4.2-11.7-5.1-28.3-6.5-56.2-5.9-82.8,7.4-1.5.7-3.1,1.3-4,2.9,12.3,7.1,24.6,14.2,36.8,21.4A182.5,182.5,0,0,0,75.2,393.9Z"/>
    <path id="Trazado_707" data-name="Trazado 707" class="cls-7" d="M181,527.8c2.2.2,4.2-.3,5.2-2.7,1.5,1.3.7,3.8,2.8,3.6,4.2-.5,6.8,2.3,9.9,4.1,8.6,4.9,15.2,3.7,22-4-2.5-1.4-4.1.6-5.9,1.5s-3.2,2.2-5.1.9-1.5-2.9-1.3-4.6c1.3-9.8.6-19.6.5-29.4,0-5.7-.3-11.3,1.1-16.8-1.4-2.7-4.5-2.4-6.6-3.7-8.1-4.1-15.5-9.6-24-13.1-3.2-.3-2.8,1.9-2.6,3.8a43.6,43.6,0,0,1,.3,10.2c.4,11.5-2.2,22.7-3.6,34a36,36,0,0,0-.1,11.8,3.7,3.7,0,0,0,.7,1.4C176.6,525.7,179.8,524.5,181,527.8Z"/>
    <path id="Trazado_708" data-name="Trazado 708" class="cls-8" d="M120.6,144.9v19.9c1.6,0,1.9-1.2,2-2.3.4-4.7.7-9.4-.2-14,1.7,2.5,4.3,3.2,7.3,2.3s2-2.6,2-4.2c0-3.4,1.6-3,3.8-1.8,5.4,2.9,10.5,6.4,16,9.1,1.7.8,3.1,1.9,5.1,1.9s5.5-1.2,8.3-1.6,5.4.7,5.3,4.7c-.1,7.7-.1,15.5,0,23.2q-.1,3.6,0,7.2c-.4,25.2.2,50.4-.4,75.6,1.6,1.7,2.5,1.1,2.9-1s.4-3.6.4-5.4c.1-38.3.1-76.7.1-115,0-4.7-.8-9.3-.6-13.9a4.9,4.9,0,0,0-4.4-4.7c-3.4-.7-4.1-2.8-4.1-5.8s.2-8.3,0-12.4c-.1-1.9.2-4.1-2.3-5-2.2,2.1-1.5,4.9-1.7,7.4.4,7.3.1,14.6.2,21.9,0,2.7-.8,3.8-3.6,2.1l-21.5-12.5c-2.3-1.2-3.5-3-3.2-5.6s1-8.3-1.4-12.1c-2.7.1-2.3,2.4-2.5,4a62.6,62.6,0,0,0-.2,7.5c0,2.5-.6,4.6-3.6,5.1s-3.4,2.4-3.4,5.1C120.9,131.3,121.4,138.1,120.6,144.9Z"/>
    <path id="Trazado_709" data-name="Trazado 709" class="cls-9" d="M119.6,357.6c-10,6.8-20.7,12.4-31.1,18.5a24.2,24.2,0,0,1-3.9,2.1c-7.1,2.7-9.8,7.7-8.5,15,.3,2.2,2,2.9,3.6,3.8,14.3,8.1,28.5,16.4,42.8,24.4,3.5,1.9,5.8,4,5.2,8.4-.2,2,.5,4.1.8,6.2a55.3,55.3,0,0,0,15.8-12.2,31.1,31.1,0,0,0,8.1-20.9c0-7.2.1-14.3,0-21.5a27,27,0,0,0-6.1-17.5,1.3,1.3,0,0,0-.3,1.8c4.1,5.8,4.4,12.4,4.4,19.3,0,8.7-4,15-10.2,20.4l-.8.5c-10.6,7.6-10.5,7.4-21.9.6s-21.7-12-32.7-17.9c-2-1.1-3.8-2.6-4-4.7s2.3-2.9,4.1-3.8c9.3-4.4,17.7-10.4,26.6-15.4,5.9-3.3,11.8-6.7,17.6-10.2,2.2-1.4,4.6.6,6.7-.7-1.8-2.4-3.5-2.8-6.4-1.2S123.5,357.2,119.6,357.6Z"/>
    <path id="Trazado_710" data-name="Trazado 710" class="cls-10" d="M132.5,15.7c-2.2-3.4-6.4-4-9.5-6.2-1.3-1-1.9-.4-2.1,1.7-.6,8.6-.4,17.2-.4,25.8V94.9c2.7-.3,2.1-2.6,2.3-4.2.3-3.3,0-6.7.1-10,.3-5.2,2-6.8,7.1-6.8,1.8-.1,3.9.5,4.9-1.5s-.5-3.5-1.7-4.9a8.3,8.3,0,0,1-2.3-6.4c0-8.8-.1-17.6,0-26.4,0-4.5.8-5.1,4.5-2.6s7.9,2.2,10,6.2a12.5,12.5,0,0,0,6.2,3.8c1.5.2,2.9.6,4.4.9,3.6.8,5.4,3,5.3,6.7,0,6.5-.2,12.9.9,19.4s3.1,8.1,9.7,5.1c1.5-3.6.6-7.3.7-10.9s-.4-9.7.2-14.4c.9-7.1-2.2-10.8-8.1-14C153.7,28.9,143,22.6,132.5,15.7Z"/>
    <path id="Trazado_711" data-name="Trazado 711" class="cls-11" d="M209.8,479.7c-2,4.2-2.3,8.5-2.2,13.3.2,11,1.2,22.2-.7,33.2-.4,2.6-.1,5.2,2,6.8s4.4,0,6.4-1.2,3.3-2.8,5.6-3c6.9-2.7,10.2-7,9.2-15s-.2-14.1-.2-21.2c0-2-.2-4,1-5.8s1.7-2.6,1.2-4.2.3-3.7,1.1-5.4-1.8-2.1-2.3-3.4-.7-4-1-6C222.3,470.3,215.2,473.6,209.8,479.7Z"/>
    <path id="Trazado_712" data-name="Trazado 712" class="cls-12" d="M171.5,189v-7.1c-3.3-2-6.3-4.7-10.5-4.6-1.3,3-.7,6.2-.7,9.3-.2,5.4-.3,5.5-4.8,2.9-8-4.7-16.5-8.6-23.9-14.4a3.1,3.1,0,0,0-2.3-.6c-8.4,1.1-8.3,1.1-8.4,9.6s.4,15.2-.4,22.7c-.1,5.3-.1,10.5-.2,15.7,3,1.3,6.3,1.1,9.4,1.8,2.4-1.2,2-3.6,2-5.7.2-4.6.1-9.2.1-13.9,0-2.6,1-3.2,3.4-2l10.5,5.7c1.6,1,3.2,2.4,5.4,1.9,2.8-2.6.5-4.3-1.7-6.7,3.8.7,6.9,1,8.9,3.9s2.6,1.5,3.8-.2,1.6-3.3,3.5-3.1c5.1.5,5.1-3,5.4-6.4S170.7,191.9,171.5,189Z"/>
    <path id="Trazado_713" data-name="Trazado 713" class="cls-13" d="M126.5,436.8a3.2,3.2,0,0,1-.3-.9c.1-10.8.2-10.6-10-6.5a90.9,90.9,0,0,1-30.5,6.4c-14.9.6-29.7,0-44-4.2-5.4-1.6-11.4-2.8-15.5-7.4-3,2.6.6,6.8-2.1,9.5a1.6,1.6,0,0,0,0,2.2c12.5,7.4,26.5,10.5,40.8,11.7,19.3,1.6,38.3-.5,56.4-8A52.1,52.1,0,0,0,126.5,436.8Z"/>
    <path id="Trazado_714" data-name="Trazado 714" class="cls-14" d="M146.6,37.9c-3.5-5.6-10.1-6.3-15.2-9.2-1.5-.8-1.9,1.5-1.9,2.8V63.3c0,2.8,1.8,4.5,3.8,6.1s1.4,1.6.9,2.6-1.7.9-2.7.8c-8.1-.9-9.8.8-10.1,9-.1,4.3,1.2,8.9-.9,13.1v8c2.9-.5,2.6-3,3.1-4.9s.8-4,3.2-3.8,3.8-1.6,4-4.2-.4-2.7.8-3.7c5.9,1.6,10.5,5.6,15.9,8.2,2,.9,3.7,2.3,6,2.4a46.1,46.1,0,0,0,13.3,3.1c3,.4,5.2-.4,5.8-3.7q.2-8.8,0-17.7c0-1.6.4-3.4-1-4.7a13.2,13.2,0,0,0-3.4.4c-3.5,1.4-4.1-.9-4.5-3.3a78.7,78.7,0,0,1-.9-19.4c.4-6-.9-9.1-8.6-10.3l-2.5-.4c-.2,2.7,2.1,3.1,3.7,4a8.1,8.1,0,0,1,4.9,8.4c-.2,7.3,0,14.6-.1,21.9,0,4.3-.8,4.9-4.6,2.6-6.3-3.8-12.8-7.3-19.1-10.9-3.2-1.9-4.8-4.3-4.7-8.1.2-7.1,0-14.3.1-21.4,0-5.4.3-5.4,5.3-2.9C140.2,36,142.6,39.3,146.6,37.9Z"/>
    <path id="Trazado_715" data-name="Trazado 715" class="cls-15" d="M214.2,68.8c-5.3-4-10.8-5.7-17.2-2.7s-11.6,8.1-11.6,16.8c0,57.8-.5,115.6-.5,173.4,0,14.9,6.7,27.1,19.6,35,10.9,6.6,22.1,12.5,33.1,18.7,3.5-2.2-.1-3.5-.7-5.2-8.7-6.5-18.5-11.1-27.9-16.6-12.7-7.5-19-18-18.9-33.1.4-54.4.1-108.8.1-163.2,0-2,0-4,.1-6,.4-8.6,2.8-11,11.5-11.4,2.3-1,1.7-2.1.1-3.2s-2.6-.5-3.9-1.8c3.3-2.3,6.6-2.3,10.2-1.3C210.1,68.8,212,70.7,214.2,68.8Z"/>
    <path id="Trazado_716" data-name="Trazado 716" class="cls-16" d="M171.5,189c-2.1,3.5.2,7.6-1.5,11.1-.5,1.1-.7,3.6-1.8,3-5.6-2.9-5.8,2.3-8.1,5.4-1-5.7-6.1-4.6-9.4-6.5-1.1-.6-2.7.5-3.2,1.7s.6,2,1.8,2.1c2.8.3,2.2,2.4,2.3,4.2s2.9,3.2,4.7,4.5,3.8,2.4,3.8,4.9c.3,9.7.1,19.4.2,29.8a85.5,85.5,0,0,1-13.7-7.3c-4-2.6-8.2-4.5-12.3-6.7-1.2-.6-2.4-1.3-3.7-.4s-.8,3.1.5,4.1,1.9,3.7,3.6,5.1l35.1,20.9c2.5-.4,1.9-2.4,1.9-3.9C171.6,237,171.6,213,171.5,189Z"/>
    <path id="Trazado_717" data-name="Trazado 717" class="cls-17" d="M220.9,48.9c-.8,5.8-.8,11.6-4.5,16.8-1.7,2.4,3,2.9,3.5,5.1a.8.8,0,0,0,1.2,0c1-1.8.5-3.9.5-5.8.2-4.4.6-4.6,4.6-2.4,18.6,10.7,37.4,21,56.1,31.6,5.1,2.8,10.1,5.9,14.9,9.1,2.2,1.4,4.4,3.2,7.3,1.7,1.7-7.8,1.4-8.7-5-12.6-16.3-10-33.3-18.9-49.8-28.6-8.2-4.8-16.6-9.2-24.7-14.1C223.8,49,222.5,47.8,220.9,48.9Z"/>
    <path id="Trazado_718" data-name="Trazado 718" class="cls-18" d="M174.7,524.7c-.7-10.6,1.6-20.8,3.2-31.1a118.9,118.9,0,0,0,.9-16.9,5,5,0,0,0-4.3-.8,27.4,27.4,0,0,1-11.4-.5c-1.2-.3-2.6-.8-3.5.8a47.1,47.1,0,0,1,.1,18.7c-1.8,8.5-.6,17-.1,25.6,2.8,3.2,5,2.4,6.9-.9,0-5.4.9-10.8.6-16.2.8-3.3,1.2-6.8,2.1-10.1.3-.6,1.1.3.5,0s-.3-.1-.4.2c-1.2,3.3-1.4,6.7-2.1,10.1.3,5.3-.8,10.6-.6,16-.1,1.8-.6,3.7,1,5.1l.2.2C171.1,528.6,171.8,528.6,174.7,524.7Z"/>
    <path id="Trazado_719" data-name="Trazado 719" class="cls-19" d="M302.3,398.4l3-29c.5-5.4,1-10.8,1.6-16.2-.4-1.8-1.7-2.7-3.3-2.3-4.4,1.1-8.4-.2-12.5-1.2-1-.3-2.6-.6-2.2,1.4,1.2,12.8-.5,25.6.4,38.4.2,2,.6,4,.8,6s5.4.5,6.1,3.8C298.5,400.3,300.7,401.3,302.3,398.4Z"/>
    <path id="Trazado_720" data-name="Trazado 720" class="cls-20" d="M423.3,199.6c2.8-2.3,6.1-3.6,9.2-5,4.7-3.3,5.8-7.6,4.2-12.8-4.1-2.4-8.3.8-12.4-.4-2.7,3-6.5,1.2-9.8,1.9s-6.9,4.4-8.8,8.2a21.1,21.1,0,0,0-.5,6.6,32,32,0,0,0,.4,6.9c1.6,5-.5,10.4,1.3,15.4,1.1,2,3.5,1.5,5.1,2.7s5,2.8,7.9,1a5.4,5.4,0,0,0,1.1-3.2c-.2-4.5.8-8.9,1-13.3C422,204.9,421.9,202.1,423.3,199.6Z"/>
    <path id="Trazado_721" data-name="Trazado 721" class="cls-21" d="M128.5,320.8c.1-2.5.3-5,.3-7.5-.2-7.7,1.4-14.7,7.1-20.4,3.3-3.2,1.7-7.2,1.5-10.9-.1-2-.5-3.9-.8-5.9a4.1,4.1,0,0,0-1.9-2.9c-2.2-1.2-3.4-2.5-.8-4.5.8-.6,1.3-1.6.2-2.4a6.8,6.8,0,0,0-3.7-.7c-2.8.4-5.6.7-8.4-.2s-2.9-.8-4.2.5c-1.4,6.2-1.2,12.4,2.1,17.8s4.3,12.9-.2,19.4c-.8,1-.9,2.4-1.3,3.7,2,4.5,4.3,9,5.8,13.7C125.5,322.1,127,322.1,128.5,320.8Z"/>
    <path id="Trazado_722" data-name="Trazado 722" class="cls-22" d="M406.7,191l7.9-6.9c-.6-2.8-3.2-2.2-5-3.1l-41.9-24.4-4.1-1.9c-2.9.6-5.8.9-8.4-1.1a5.9,5.9,0,0,0-3.9-.8c-1.3.1-2.8.2-3.3,1.7s.6,2.5,1.7,3.3c3.2,2.3,7.2,3.6,9.8,6.8,6.5,5.5,14.5,8.6,21.7,13.1s13.9,7.9,20.8,12A7.3,7.3,0,0,0,406.7,191Z"/>
    <path id="Trazado_723" data-name="Trazado 723" class="cls-23" d="M360.4,164c-2.2-3.7-6.4-4.5-9.5-6.8-.9-.7-2.5-1-1.9-2.4s2-.9,3-.8a6.3,6.3,0,0,1,3.7,1.2c2.9,3,5.4,2,7.9-.5-18.2-11-36.7-21.6-55.3-32-2.9-.9-4.1.3-4.1,3a44.8,44.8,0,0,0,.8,6.4c.4,1.9,1.9,3,3.6,3.9,15.6,8.8,31.1,17.9,46.8,26.8C356.9,163.7,358.3,165.3,360.4,164Z"/>
    <path id="Trazado_724" data-name="Trazado 724" class="cls-24" d="M472.9,425.8l-10.5,6.4a2.3,2.3,0,0,1-.2-2.9c5.4-7,3.9-14.8,4.1-22.7.2-11.3-1.9-22.5.3-33.7a22.6,22.6,0,0,0,.2-4.5V245.6c0-1.9.7-4-1-5.7-2,2.1-1.3,4.7-1.4,7.1,0,29,.6,58-.3,86.9s-.4,56.6-.7,84.9c-.1,8-4.9,11.1-12.4,8.2a51.9,51.9,0,0,1-6.6-3.5c-16.8-10.2-34.2-19.5-51.2-29.5-1.8-1.1-3.7-2.4-6.1-1.9s-2,1.3-1.6,2.8c7.4,5.8,15.9,9.7,23.9,14.4q20.7,12.1,41.7,23.7C458.3,437,468.7,433.3,472.9,425.8Z"/>
    <path id="Trazado_725" data-name="Trazado 725" class="cls-25" d="M351.7,58.7c-3.6-2.9-7.4-3.2-11.5-.8S330.8,63.5,326,66s-4.8,5.2-4.2,9.2c1.5,9.7,7.7,15.4,16.5,18.9.6-9.3,4.6-17.1,10.1-24.3,1.2-1.6,2.3-3.1,1.5-4.9S350,60.5,351.7,58.7Z"/>
    <path id="Trazado_726" data-name="Trazado 726" class="cls-26" d="M230.9,473.9c-1.4,2.2-.5,3.1,1.9,3,4.8-1.2,8.8-3.9,13-6.3,15.8-9.2,31.6-18.6,47.5-27.6l36.4-21.1c15.4-9,31.4-16.9,46.1-27.1,2.1-1.6,4.5-.6,6.7-1.5a2.6,2.6,0,0,0,1.3-2.5,19.6,19.6,0,0,1-3.6-10.2,2.1,2.1,0,0,0-2.5-1.2c-1.9,1.4-1.6,3.8-2.7,5.6a23.9,23.9,0,0,0-1.5,3.7c-1,4.7-5.2,6.2-8.6,8.2-17.4,10.1-34.9,20-52.4,30L246,465.2Z"/>
    <path id="Trazado_727" data-name="Trazado 727" class="cls-27" d="M159.6,476.2a35.8,35.8,0,0,0,19.2.5,24.5,24.5,0,0,0-.9-10.1c-.6-2.2-.2-2.9,2-1.8s5.1.8,7.4-.8,4-1,3.7-3.4-2.6-2.7-4.5-3a5.9,5.9,0,0,1-4.4-3.7c-.4-.8-.9-1.6-1.4-2.4a21,21,0,0,1-1.5-3,8.4,8.4,0,0,0-2.7-3.2c-2.2-.9-4.3-.4-5.2,1.6-2.1,4.9-6,5.4-10.5,4.9.1,5.9.4,11.9-1.9,17.6C158.1,471.6,158.7,474,159.6,476.2Z"/>
    <path id="Trazado_728" data-name="Trazado 728" class="cls-28" d="M375.5,84.9a8.2,8.2,0,0,0-4.1-5.3c-5.4-2.4-7.9-7.1-10.5-11.7-1.2-.4-1.5-1.8-2.6-2.2s-3.5-.1-3.6,2.3.7,2.2.8,3.3c.9,5.2,2.2,10.1-2.1,14.9-2.4,2.7-2.5,7.1-3.3,10.8s2.6,4.2,4.2,6.3c4.6,3.5,9.9,6,15.1,8.6.8-.7,1.1-2.2.4-2.5-4.3-2.3-1.7-4.9-.3-7.1,3.4-5.6,4.8-11.4,1.7-17.6C372.9,84.3,373.9,87.7,375.5,84.9Z"/>
    <path id="Trazado_729" data-name="Trazado 729" class="cls-29" d="M354.3,103.3c-1.1-3.1-4.9-5.5-1.9-9.7s.9-6.8,4.2-9.7-.2-8.6.5-13.1c.2-1.4-2.8-2.7-1-4.3s3,1.4,4.8,1.4c-2.2-3.9-5-7.3-9.2-9.1-3.8.2-5.3,1.7-3.2,5.4.7,1.3,1.3,2.8-.1,4-6.7,5.7-8,14.2-11.7,21.4-1,2,1.2,2.9,1.6,4.5A120.6,120.6,0,0,0,354.3,103.3Z"/>
    <path id="Trazado_730" data-name="Trazado 730" class="cls-30" d="M306.1,133c0-2.3.2-4.6-.7-6.9s.7-3.3,2.9-3.3l-2.1-1.9c-.8-1.6-2.4-2.2-3.8-3.1-12.3-7.2-24.7-14.3-37.1-21.2-1.3-.7-2.5-1.7-4.2-1-.6,4.6,4.3,4.4,5.8,6.9-10.5,2.3-17-6.5-25.7-9.7-1.8-.7-3.2-2.5-5.4-1-.4,2.8,2.1,3.7,3.8,4.6,19.5,10.9,38.7,22.3,58.2,33.2,2.3,1.2,4.3,3.1,6.9,3.9A2.4,2.4,0,0,0,306.1,133Z"/>
    <path id="Trazado_731" data-name="Trazado 731" class="cls-31" d="M383.3,390.9l-1.1,1.9c-25,18.5-53.1,32-79.7,47.9-22.1,13.1-44.4,25.7-66.6,38.6-1.6.9-3.4,1.5-4.2,3.5s-3.2,2.1-.8,4l105.7-61.1q19.9-11.6,40-23c3.5-2,6.1-5,8.9-7.8l1.2-2a8.3,8.3,0,0,0,1.7-7.1c-.9-2.1-.6-5.9-4.9-3.9C383.4,384.9,383.3,387.9,383.3,390.9Z"/>
    <path id="Trazado_732" data-name="Trazado 732" class="cls-32" d="M235.7,92.1c4.7.2,8.2,3.4,11.9,5.5s8.2,3.5,11.5,6.7a2.9,2.9,0,0,0,3.8,0c1.6-1.2,2.9-1.6,4.1.4a1.3,1.3,0,0,0,2.4.1c.9-1.1.7-2.1-.6-2.9s-6.1-2.9-7.8-6c-.1-2.7-2.6-3.3-4.3-4.3C244.8,84.7,233,77.5,220.8,71l-1-.2-3.9-1.1c-.9,1.6.5,2.4,1.4,3.2s2.6,2.2,2.1,4.2-2.4,1.7-4,1.9a2.6,2.6,0,0,0-1.7.9c1.5,4.2,6.1,4.3,8.9,6.8s5.1,2.7,7.7,4.1S233.5,93.2,235.7,92.1Z"/>
    <path id="Trazado_733" data-name="Trazado 733" class="cls-33" d="M252.9,28.3c2.9,5.2,8.3,7.1,13.2,9.6.7-1.7.8-1.8-.1-3.1s-1.4-3.9.1-5.9c3.4-4.8,5.4-10.6,9.7-14.9,2-2,3-5.2,1-7.8s0-3.4.2-5-1-1.3-2-1c-7,0-11.4,4.8-16.4,8.5-2.4,1.7-4.5,3.8-7.5,4.7s-1.7,3.7-1.3,5.5C250.5,22.2,252.2,25.1,252.9,28.3Z"/>
    <path id="Trazado_734" data-name="Trazado 734" class="cls-34" d="M160.8,451.8c6.6,2.8,6.9,2.7,10.6-3.1,1.2-1.9,2.5-3.5,5.1-2.9s2.2-1.6,1.3-3.3-.7-1.8-1.1-2.8l-.3-.3c-2.8-5.6,2-6.1,5.2-7.7,1.6-3.8.3-6.6-3.1-8.4s-8.1-2.2-11,1.3-4.9,7.7-7.3,11.6C156.7,441.6,158.2,446.7,160.8,451.8Z"/>
    <path id="Trazado_735" data-name="Trazado 735" class="cls-35" d="M273.1,42a145.6,145.6,0,0,0,20,11.4c.7-3.7-2.6-4.3-4.7-5.4s-3.4-3.2-1.6-5.8a37.4,37.4,0,0,1,2.7-4.2c5.8-7.2,5.9-9.4.5-17.2,1.8,2.5,3.9,3.1,6.4,1-3.7-1.6-5.5-4.8-7.1-8.3a16.2,16.2,0,0,0-4.9-6.7c-1.5-.5-3.2-1.4-4.5.3s-.6,3.4.3,4.7c2.6,3.7,1.9,6.8-.5,10.4s-4.1,8-6.4,11.8A7.3,7.3,0,0,0,273.1,42Z"/>
    <path id="Trazado_736" data-name="Trazado 736" class="cls-36" d="M375.5,84.9c-2.9.7-3.1-3-5.7-3.2-1.1,2.3.7,4,1.4,5.8,2.3,6.6-1.5,11.8-4.3,16.9-1.4,2.5-2.3,3.5.8,4.5s1.8,1.7,1.7,3c3.3,2.4,6.4,5.4,11.1,3.2,7.5-3.5,9.2-8.4,4.6-15.6C382,94.6,378.2,90.1,375.5,84.9Z"/>
    <path id="Trazado_737" data-name="Trazado 737" class="cls-37" d="M296.5,21.8c-2.9.5-5.4.3-6.5-3-.2-.8-.9-1.6-1.9-1.1s-.9,1.7-.1,2.6a23.7,23.7,0,0,1,2.9,3.4c3.1,6,2.8,7.8-2.1,13-2.1,2.3-3.1,5.2-4.6,7.7s1.3,3.5,2.8,4.3,5,1.9,6.1,4.7,4,2.4,6.1,3.5c2.6-.6.8-2.1.3-2.7-2.3-3-1.7-5.4,1-7.7a3.7,3.7,0,0,0,1.6-3c-.1-3.3,1.3-6.1,3.1-8.7C304.2,29.2,301.7,24.6,296.5,21.8Z"/>
    <path id="Trazado_738" data-name="Trazado 738" class="cls-38" d="M171.6,73.9v24c-1.8,10.3-.2,20.7.1,31,2,45,.3,90,1,135,1.5-1.5.9-3.5.9-5.2q0-106.6.2-213.4c0-4.4-1.5-7-5.4-9.1-10.8-5.9-20.7-13.1-31.8-18.6l-4.1-1.8c2.9,4.9,8.5,6.1,12.9,9,7.2,4.7,14.7,9,22.4,13.1,3.2,1.7,4,3.8,3.9,7.1C171.6,54.6,171.6,64.3,171.6,73.9Z"/>
    <path id="Trazado_739" data-name="Trazado 739" class="cls-39" d="M117.8,265.9c4.2.4,8.2,3.1,12.4.3.6-2.5,2.2-2.1,4.1-1.9s3.4-1.2,2.3-3.6c-3.8-5-1.4-11-2.9-16.4a3.6,3.6,0,0,0-1.9-4.6c-1.9-.9-3.2.3-4.3,1.6s-.8,2.8-.9,4.3-.2,2.5-1.6,2.8-2-1.4-2.5-2.6-.6-3.9-1.6-5.7-1.1-1.7-2.3-.8c-4.9,5.6-2.4,12-1.4,18C117.7,260.2,118.4,263,117.8,265.9Z"/>
    <path id="Trazado_740" data-name="Trazado 740" class="cls-40" d="M273.1,42c-.6-8.2,5.1-14,8.6-20.4,2.1-3.8,2.5-6.1,0-9.5s-2.1-5.5,2.7-5.3c-2-2.4-4.1-4.9-7.4-5.6-2.4,1.2-5.1,1.8-1.5,5.2s.8,6-1.6,8.1c-5.1,4.3-6,11.2-10.4,16-1.1,1.1-.4,2.7.6,4s2.8,1.4,2,3.4C268.1,39.9,270.7,40.6,273.1,42Z"/>
    <path id="Trazado_741" data-name="Trazado 741" class="cls-41" d="M373.5,388.7a2.7,2.7,0,0,0,1.9-3c-.4-1.9-1.9-2.6-3.4-3.5-20.9-12.2-42.2-24-63.1-36.4a2.2,2.2,0,0,0-1.4-.2c-2.2,1.7-4,3.8-7.3,3.9-7.3.3-9.6-1.7-9.7-9-.1-2.8.5-5.7-.9-8.4s-2.3,1.2-3.1,2.2a15.1,15.1,0,0,0-.7,3.7c2.3,1.8,2.3,4.2,2.2,6.8s-.2,4.3.9,6.3c5.9,1.7,12.1.7,18,2.1.5-2.8,1.8-1.8,3.5-.9l46.7,26.9Z"/>
    <path id="Trazado_742" data-name="Trazado 742" class="cls-42" d="M437.9,171c5.1-.2,7.2-3.2,5.1-7.8-1-2.3-1.6-4.2-.1-6.5.4-.6.8-1.8.5-2.3-3.1-5.3-3.5-11.8-6.9-16.8s-10.4-3.8-14.1,2.3c-.1,1.2-.9,2.9,1,3.2,5.6.6,8.2,3.2,6.7,9a6.5,6.5,0,0,0,.2,2.4c.2,2.8,1.2,4.9,4.4,5.1s1.4,3.5,1.6,5.4S435.8,169.4,437.9,171Z"/>
    <path id="Trazado_743" data-name="Trazado 743" class="cls-43" d="M305.2,34.8c-2.9.3-4.2,2.1-4,4.9s-.3,5.6-3.3,7.7-2.7,3.6-.4,5.9,2.6,1.8,1.7,3.6c4.3,4.2,8.2,1.8,12-.8s3.4-5.9,2.5-9.3C312.5,41.7,309.2,38,305.2,34.8Z"/>
    <path id="Trazado_744" data-name="Trazado 744" class="cls-44" d="M120.6,206.9c1.8-5.7.5-11.5.8-17.2.2-3.3.1-6.7.1-10s0-4.6,3.5-3.1,3.8-.6,5.4-1.7c2.8-3.4,1.3-7.4,1.6-11.1s1.4-9.5-1.6-13.9c-3.1,0-6.5.7-8.4-4.1-1.4,7.1.7,13.2-1.4,19Z"/>
    <path id="Trazado_745" data-name="Trazado 745" class="cls-45" d="M130.8,84.1c-2.8,2.5-.3,6-1.7,9-4.7-1.5-7,.2-6.8,5.3a6.3,6.3,0,0,1-1.8,4.5c.1,14,.1,28,.1,42,1.8-6.1.6-12.4.8-18.6.1-3.3,0-6,4.6-5.5,3,.4,3.4-1.8,3.5-4.2.3-4.6-1-9.2.8-13.7C133.3,96.7,132.7,90.4,130.8,84.1Z"/>
    <path id="Trazado_746" data-name="Trazado 746" class="cls-46" d="M24.1,435.9v-2.2c-.7-1.2-1.4-2.5-.9-3.8,2.1-5.1-1.9-7-4.9-9.3-6-4.6-12.7-8.5-15.1-16.4-.1-.3-.8-.5-1.7-.8-1,2-.3,4.2-.5,6.2C3.5,422.8,13,430,24.1,435.9Z"/>
    <path id="Trazado_747" data-name="Trazado 747" class="cls-47" d="M302.2,118.9l4,2c0-7.3-.1-14.6,0-22,.1-2.8-1-4.3-3.5-5.8-17.4-11-35.9-20.2-53.7-30.6-8.1-4.8-16.3-9.5-24.5-14.1-1.1-.6-2.9-2.9-3.6.5,8,4.3,16.1,8.5,24,13.1,18.5,10.5,36.7,21.5,55.4,31.8,5.5,3,3.3,7.1,3.8,11.1C301.5,109.3,303.4,114.3,302.2,118.9Z"/>
    <path id="Trazado_748" data-name="Trazado 748" class="cls-48" d="M118.6,239.3c2,.8,1.8,2.6,2,4.2.4,3.2,1.5,7.4,4.6,6.9s3.4-4.9,2-8.3c0-.2-.1-.4-.1-.6-2.1-2.4-4.9-5.2-3.6-8.2s5.2-3.5,8.5-3.8c1-2.7.2-4.5-2.5-5.5-2.7-2.6-5.8-2.8-9.1-1.5C114.5,227.4,113.9,233.2,118.6,239.3Z"/>
    <path id="Trazado_749" data-name="Trazado 749" class="cls-49" d="M213.9,80c2-.8,4.3,1.8,5.9-.3s2.5-4.6-.4-6.8c-1.3-.9-3.1-1.3-3.5-3.2l-1.7-.9c-5.1-1-9.9-4.5-15.3-1.7-1.3.6-3.5.7-3.4,2.4s2,2.4,3.8,2.4,3.1-.3,3.5,1.8C205.6,77.4,209.1,79.9,213.9,80Z"/>
    <path id="Trazado_750" data-name="Trazado 750" class="cls-50" d="M285.9,338c1.3-.7,1.2-2,1.2-3.3s-1.2-2.3-2.3-2.8c-14.3-7.5-27.8-16.5-42.1-24-1.7-.9-3.4-2.8-5.8-1.8-.6,1.5,2.6,2.2.8,3.9,11.2,6.7,22.5,13.3,33.9,19.9C276.3,332.7,281.1,335.3,285.9,338Z"/>
    <path id="Trazado_751" data-name="Trazado 751" class="cls-51" d="M409.6,181l5,3.1c1,0,2.2-.4,2.9.1,3.3,2.2,5.2,1,6.3-2.4a1.8,1.8,0,0,0,2.3-1.2v-.2a17.5,17.5,0,0,1-5.7-13.2,2.2,2.2,0,0,0-1-1.1c-1.2,3.2-3.2,2.8-5.8,1.5s-3.8-2.5-5.3-1.1-.2,3.5.4,5.1.3,5.2,2.1,7.5S410.6,180.7,409.6,181Z"/>
    <path id="Trazado_752" data-name="Trazado 752" class="cls-52" d="M177.8,442.5l-1.3,3.3a5.8,5.8,0,0,0,2.3,3.4c3.1.9,5-1.4,7.2-2.7s5.9-2.1,9.2-.2l21,12.2a6.6,6.6,0,0,0,2.7,1.2c1.9.3,3.7,1,5.7.8a2.4,2.4,0,0,0,1.3-.7l-35.3-20.7c-2.5-1.4-4.8-1-7.1.3Z"/>
    <path id="Trazado_753" data-name="Trazado 753" class="cls-53" d="M252.9,28.3c1.3-3.4-1.4-5.8-2.1-8.8s-2.6-3.8,2.1-5.4,8.5-4.8,11.6-8.9,7-3.3,10.5-5c-3.1-.8-5.8-.1-8.6,1.5s-6.7,4.6-10.6,6.2c-7.6,3.2-9.1,8.6-5.3,16.7A29.2,29.2,0,0,0,252.9,28.3Z"/>
    <path id="Trazado_754" data-name="Trazado 754" class="cls-54" d="M425.8,180.8l-2,1c4.3,2.9,8.6-.4,12.9,0-1.1-3.8-1.2-7.5,1.2-10.8,0-3.2.1-6.3.1-9.5s-.1-3.8-3-3.4a5.8,5.8,0,0,0-2.4,6.5c1,3.8-1,5.4-4.1,6.3-.2,1.9,1.2,2.5,2.6,3.1s2.2,1.4,2,3-1.7,2.3-3.2,2.5S427,179.7,425.8,180.8Z"/>
    <path id="Trazado_755" data-name="Trazado 755" class="cls-55" d="M431.5,153.7c-.1-.8-.6-1.9-.3-2.4,3.3-5.2-2.3-6.3-4.1-9.2s-1.9-.7-2.9-.2c-2.8,1.2-1.3-1.3-1.8-2-2.8,3.7,1.8,6.5,1.2,9.9.7,1.2.8,2.7,1.6,3.8s2.9,2.7,5.1,1.9A2.8,2.8,0,0,0,431.5,153.7Z"/>
    <path id="Trazado_756" data-name="Trazado 756" class="cls-56" d="M225.9,459.8h-1c1.5,4.4.1,6.9-4.4,8.4-3,1.1-6,2.7-7.7,5.9-.7,1.4-2.5,1.5-3.9,1.9s-4.7-1.3-6.1,1.5a8.6,8.6,0,0,0,7,2.2l20.1-11.9C230.2,464.3,230.6,460.8,225.9,459.8Z"/>
    <path id="Trazado_757" data-name="Trazado 757" class="cls-57" d="M134,266.7a8.3,8.3,0,0,1-.8,1.2c-4.1,3.7-4.1,3.7,1.2,6,3.3,1.9,5.7.2,7.8-2s1-3-.6-4.1l-1.2-1.7C138.1,264.4,135.9,263.9,134,266.7Z"/>
    <path id="Trazado_758" data-name="Trazado 758" class="cls-58" d="M141.6,267.8c.7,3.9-1.4,5.6-7.1,6.1l2.1,2.2c2.2.2,3.9,3.2,6.3,1.5s6.5-2,6.1-4.3S144.4,269.3,141.6,267.8Z"/>
    <path id="Trazado_759" data-name="Trazado 759" class="cls-59" d="M426.2,153.5c-.4-1.6-.8-3.2-2.6-3.7l-4.8,11.4c-.6,1.5-.6,2.9.8,3.9,4.3,1.5,5.3-1.4,6.5-4.5S426.6,155.9,426.2,153.5Z"/>
    <path id="Trazado_760" data-name="Trazado 760" class="cls-60" d="M128.5,320.8c-1.4-.1-3,.5-4.1-1h-.6c-.3,4.1,3.5,8.6,7.6,8.9,1.2,0,2.3-.2,2.9-1.4a2.1,2.1,0,0,0-.9-2.6Z"/>
    <path id="Trazado_761" data-name="Trazado 761" class="cls-61" d="M302.3,398.4c-2,1.2-4,.9-6.1.2a6.8,6.8,0,0,0-7.1,1.2c2,2.1,7,0,7.1,4.8,3.4.5,6.3-1.5,9.4-2.4,1-.3,2.6-.6,2.5-1.9s-1.8-1.6-3.1-1.8a3.2,3.2,0,0,0-1.9.3A2,2,0,0,1,302.3,398.4Z"/>
    <path id="Trazado_762" data-name="Trazado 762" class="cls-62" d="M123.8,319.9h.6c-1.1-4.8-1.2-10-6-13-3.5,4.4,0,7.5,2.3,10.7C121.4,318.5,122.7,319.1,123.8,319.9Z"/>
    <path id="Trazado_763" data-name="Trazado 763" class="cls-63" d="M165.8,519.5c-1.6,3-3.9,2-6.2,1-.7,2-1.8,4.4.4,5.8s5.1-.7,7.6-1.6a10.2,10.2,0,0,0-.2-5.2A1.2,1.2,0,0,0,165.8,519.5Z"/>
    <path id="Trazado_764" data-name="Trazado 764" class="cls-64" d="M426.2,153.5c-.5,2.2-1.1,4.5-1.4,6.8s-2,4.7-5.2,4.8c0,.3-.1.6-.1,1l.3,1c4.9.2,5.9-.6,7.9-6.8.5,1.7-.3,3.4.9,4.7,3.4-.1,4.3-2.2,3.4-5s-.8-3.5-1.8-5C428.7,155,427,155.4,426.2,153.5Z"/>
    <path id="Trazado_765" data-name="Trazado 765" class="cls-65" d="M134,266.7a10.8,10.8,0,0,1,6.4-.7,14.1,14.1,0,0,0-3.8-5.3c.2,3-1.3,3.1-3.6,2.2s-2.5-1.6-3.6-.2.2,2.4.8,3.5S132.6,267.3,134,266.7Z"/>
    <path id="Trazado_766" data-name="Trazado 766" class="cls-66" d="M181,527.8c.2-1.2,1.4-2.3-.3-3.4s-3.6-1.3-5.3.4,2.2,2-.6,2.9-4.8.8-6.9,2.1c.1,1.8,1.5,2.5,2.8,1.9C174,530.3,178.1,530.4,181,527.8Z"/>
    <path id="Trazado_767" data-name="Trazado 767" class="cls-67" d="M167.9,529.8c3.9,1.8,6.5-1.6,10.1-2.2l-2.6-2.8h-.7c-2.2,2.4-4.6,2.3-6.9.2C167.8,526.6,167.9,528.2,167.9,529.8Z"/>
    <path id="Trazado_768" data-name="Trazado 768" class="cls-68" d="M303.1,398.8l4.4,1.6c-3.5,2.3-7.5,3-11.3,4.2,2.9.9,11.5-1.6,13-3.8s1.5-2-.1-2.9S304.8,396.2,303.1,398.8Z"/>
    <path id="Trazado_769" data-name="Trazado 769" class="cls-69" d="M289.1,399.8a18.6,18.6,0,0,0,7.1-1.1c.4-5.7-4.1-2.1-6.1-3.2C289.1,396.8,288.3,398.1,289.1,399.8Z"/>
    <path id="Trazado_770" data-name="Trazado 770" class="cls-70" d="M127.2,242.1c3.1-1.9,5.7-2.6,6.5,2.2l1-.3c0-2.4-.5-4.6-2.8-5.9s-1.5-2-1.1-3.4l-.9-.2c-3.7,1.5-4.3,4.2-2.6,7.6Z"/>
    <path id="Trazado_771" data-name="Trazado 771" class="cls-71" d="M181.6,431.7h-.5c-7.4.5-7.8,1.2-4.4,7.9A24.3,24.3,0,0,1,181.6,431.7Z"/>
    <path id="Trazado_772" data-name="Trazado 772" class="cls-7" d="M182.7,533.9c-1.8-1.5-3.1-1.4-4.7-.3C179.4,535.1,180.7,535,182.7,533.9Z"/>
    <path id="Trazado_773" data-name="Trazado 773" class="cls-72" d="M387.4,385.8c-.2,2.4-.4,4.7-.7,7.1,8,2.3,14.4,7.6,21.5,11.5,13.5,7.3,26.7,15.2,39.9,22.9,10.4,6.1,17.3.3,16.9-9.6s-.1-17.3,0-26q.3-75.9.8-151.8c-3.1-12.2-9.7-21.3-21.3-27.4-7.3-3.8-14.9-7.3-21.1-12.9-5,.9-2.3,4.6-2.6,7.2,1.6,2.9,4.5,4.3,7.4,5.7,4.5,2.1,6.1,5.3,6,10.3-.3,27.4.2,54.9.1,82.3a31.4,31.4,0,0,0,.3,7.5c3,2.6,1.5,5.1-.1,7.7-.2,12.8-.7,25.6.2,38.4,2.7,1.2,4.1.3,3.8-3.2s0-8.6,0-12.9,1.9-4.5,4.7-4.8,2.9.2,3.4,2.5c.8,4.2,3.6,5.2,7.3,3.2s6.4-.8,7.3,3.2a22.6,22.6,0,0,1,.2,4.5c.3,11.1-.7,22.3.9,33.4.6,4.1-.7,8.3-1,12.4-.6,6.8-1,13.5-.1,20.4s-1.9,7.6-7.5,6.3-6.6-1.6-6.9-8.8c0-1.6.3-3.6-1.6-4.3s-2.2,1.1-3.6,2.8c.6-2.6.3-4.4-1.3-5.8-3.3-2.5-3-5.7-2.2-9.4,1.1-5.6,1.3-11.4-2.1-16.6a3.8,3.8,0,0,0-2.1,2.2c-1.4,8.3.1,16.7-.9,25.5-6.4-2.9-11.6-6.6-17.4-9.5-7.3-4.4-15.1-8.1-22.3-12.8C391.6,385.9,389.8,384.4,387.4,385.8Z"/>
    <path id="Trazado_774" data-name="Trazado 774" class="cls-73" d="M202.8,477.5c1.9-1.4,4.3,1.8,6-.7-3.8-1-1.8-4.6-2.9-6.8-5.4-1.5-9.6-5.2-14.7-7.2-1.3,0-2.7-1.2-4.1.1s-5.2-.2-7.2,1.9Z"/>
    <path id="Trazado_775" data-name="Trazado 775" class="cls-74" d="M130.8,84.1c-.2,6.3-.3,12.5-.5,18.8.1,4.4.3,8.7.4,13,7.8,3.7,9.1,2.9,9.2-5.6.1-2.9-.3-5.9.5-8.8,1-4.8.9-4.5,5.1-2.5s6.5,5.2,5.9,10.2a11.6,11.6,0,0,0,.7,6.4c1.3,2.7,3.4,4,6.4,3.2s2.5-3.7,2.6-6-.2-2,.5-2.8l.3-8c-1.6-3.8-5.5-4.3-8.6-5.9Z"/>
    <path id="Trazado_776" data-name="Trazado 776" class="cls-75" d="M130.4,149.9l.3,14c1.4.9,1.6,3.5,4.1,3,.9-3.5,3.9-4.4,6.9-5.2,6-2.3,8.4-1.5,11.9,3.5,1.2,1.7,1.3,5.4,4.3,4.5s3.7-4.7,3.8-7.9c.1-1.6-.8-2.9-1.5-4.2s-3-1.8-4.5-2.8c-7-3.9-14.2-7.7-21.1-12-4.1-2.6-4.3-.7-4.1,2.6C130.6,146.9,130.4,148.4,130.4,149.9Z"/>
    <path id="Trazado_777" data-name="Trazado 777" class="cls-76" d="M139.5,101c-2.1,3.3-.7,7.1-.9,10.6s-.1,4.7-4.4,4.1a13.5,13.5,0,0,0-3.5.2c-.7,2.5.5,4,2.6,5.2l24.9,14.5c2.9,1.7,3.6.7,3.6-2.3-.2-7.8-.2-15.6-.2-23.3-.9.6-.9,1.6-1,2.6s.6,4.4-2.3,5.2-4.2-1-5.6-2.9c-1.9,1.6-1.4,3.9-1.4,6s-1.1,2.7-3.2,1.8c-5.9-2.5-7-4.2-7.3-10.8C140.7,108.3,142,104.4,139.5,101Z"/>
    <path id="Trazado_778" data-name="Trazado 778" class="cls-77" d="M153.3,96.1c2.3,2.8,6.1,3.4,8.6,5.9,1.7,6.3.5,12.8.7,19.2.1,3.2.5,5.2,4.3,4.7,2.3-.3,3.7,1.1,4.8,3,1.7-1.8.9-4.1.9-6.2a187,187,0,0,0-1-24.8,19.3,19.3,0,0,1-14.7-1.4C155.5,95.9,154.6,95.2,153.3,96.1Z"/>
    <path id="Trazado_779" data-name="Trazado 779" class="cls-78" d="M155.7,154.8l3.9,3.1c2.8,2.4,1.3,5.4,1.1,8.2s-1.8,7.5,1.1,10.8a13.8,13.8,0,0,0,9.8,5c0-8.6,0-17.3.1-25.9,0-3.3-.7-4.5-4.4-3.6S159.4,153.2,155.7,154.8Z"/>
    <path id="Trazado_780" data-name="Trazado 780" class="cls-79" d="M146.6,37.9c-4.1-2.2-8.2-4.3-12.2-6.6-2.4-1.4-3.9-1.8-3.9,1.9.1,9.5.1,19,0,28.4a4.6,4.6,0,0,0,2.8,4.8l24.6,14.3c2.6,1.5,3.9,1.2,3.9-2.2-.1-9.4-.1-18.9,0-28.4a4.5,4.5,0,0,0-2.5-4.4c-2.6-1.5-5.1-3.2-7.6-4.8A12.6,12.6,0,0,1,146.6,37.9Z"/>
    <path id="Trazado_781" data-name="Trazado 781" class="cls-80" d="M231.8,482.8l65.4-37.6q37.9-21.7,75.7-43.7c3.8-2.2,7.5-4.5,9.3-8.7-3.4-1.2-5.9-.2-8.8,2.2-8,6.2-17.5,10.2-26.2,15.4-18.6,10.9-37.1,21.6-55.8,32.4l-53.2,30.5c-1.9,1.1-3.6,2.4-5.4,3.6S227.4,480,231.8,482.8Z"/>
    <path id="Trazado_782" data-name="Trazado 782" class="cls-81" d="M129.5,224c1.4,1.8,2.5,3.7,1.8,6.1s-2.2,2.9-.8,4.8l.3-.2,30.8,17.2c0-12,.1-23.2,0-34.4,0-2.2-2.3-2.6-3.8-3.5l-6.2-4c-5.6-3-11.3-5.7-16.6-9.1s-4.6-.6-4.5,3c.1,5.1,0,10.3,0,15.4C130.4,220.9,131.1,222.7,129.5,224Z"/>
    <path id="Trazado_783" data-name="Trazado 783" class="cls-82" d="M161.8,176.9c0-5.1,0-10.2-.1-15.2,0-1.6.4-3.5-2.1-3.8,1.8,4.2,1.1,8-2,11.6-5.8-10.7-8.9-12.4-16.1-9a1.9,1.9,0,0,0,2.3,1.3h.1c5-.8,7.3,2.4,9.1,6.1s2.4,4.7,3.4,7.2.8,2.3-.2,3.2-2.3.4-3.2-.1c-5.4-3-10.9-5.7-15.8-9.5-.9-.7-1.6-1.7-2.9-1.8s-1.1-3.6-3.6-3l-.3,11c2.6,4.4,7.5,5.8,11.4,8.4s10.9,6.2,16.4,9.3c2.3,1.4,3.6,1.3,3.5-1.9S161.8,181.5,161.8,176.9Z"/>
    <path id="Trazado_784" data-name="Trazado 784" class="cls-83" d="M236.9,306.1l50.2,28.6c1.4-.4.8-2,1.8-2.7s1.3-2.2.9-3.6-4-3.4-6.3-4.6c-19.3-10.8-38.3-22.2-57.6-33.1-1.7-.9-3.6-1.8-4.3-3.9-.9-14.3.1-28.6-.3-42.8.2-4.7.2-9.4.1-14.1s.5-9.5-.4-14.2a20,20,0,0,1-.7-6.9c0-33.3-.2-66.6.1-99.9.1-7.7-.2-15.6,2.7-23.1L213.9,80l-11.1-6.2c-9.2-2.3-13.8,1.4-13.9,11.3q-.2,59.4-.2,118.8c-.1,17.5.1,35-.2,52.4-.1,14.5,6.1,25.2,18.6,32.4Z"/>
    <path id="Trazado_785" data-name="Trazado 785" class="cls-84" d="M302.2,118.9c2.4-.3,1.9-2.2,2-3.8,0-3.4-.1-6.8-.1-10.2-5.5-.7-9.3-4.9-13.8-7.4-13-7.3-25.8-14.8-38.9-21.9-8.9-4.8-17.5-10-26.2-15.1-1.2-.6-2.2-2.1-3.6-1.2a4,4,0,0,0-1.5,4c.3,2.5.5,5.1.7,7.7,3.7,4.7,9.5,6.3,14.3,9.4,8.4,5.4,17.6,9.7,25.9,15.5,13,6.3,25,14.2,37.7,21.1Z"/>
    <path id="Trazado_786" data-name="Trazado 786" class="cls-84" d="M226,58.7a1.5,1.5,0,0,0,1.8-1.4c.1-1.4-.4-2.2-1.9-2.3s-1.7.3-1.6,1.3S224.9,58.5,226,58.7Z"/>
    <path id="Trazado_787" data-name="Trazado 787" class="cls-85" d="M165.8,519.5h1.6c.8-5.5.1-11.1.2-16.7-.3-.5-.6-.5-.8.1C166.8,508.5,165.2,513.9,165.8,519.5Z"/>
    <path id="Trazado_788" data-name="Trazado 788" class="cls-86" d="M166.8,502.9h.8c1.6-3.2,1.9-6.6,1.8-11.2C167.2,495.9,167.1,499.4,166.8,502.9Z"/>
    <path id="Trazado_789" data-name="Trazado 789" class="cls-87" d="M407.6,220.4c-.5-5.2,1-10.5-.9-15.6-2.6,3.8-.9,8.9-3.9,12.6-.4.4-.3,1.5-.7,1.8-3.9,2.1-6.9,4.6-4.4,9.6.2.5-.7,1.2-1.3,1.3-6.3.6-9.6,5.7-14.2,8.8-1.8,1.4-3.5,3.1-6.1,4-.5-2.8-.2-5.4-.2-8-.1-11.3,0-22.6-.1-33.9,0-2.2.6-4.7-1.7-6.4a1.7,1.7,0,0,0-1.4,1,7.7,7.7,0,0,0-.8,3.4c0,16.2-.4,32.4.3,48.6a29,29,0,0,1,.9,8.3v35.9a19.4,19.4,0,0,0,.5,5.9c.6,1.7,1.1,3.8,3.5,3.7s3.3-1.9,3.6-4,.1-5.6.2-8.5.4-3.2,2.6-2.3c6.9,2.9,10-3.1,14.2-6.2,1.1-.8,1.3-2,3-1.3s2.2-.2,2.8-1.4,0-2.6-1-3.5-4-2.4-2.2-5.1a20.4,20.4,0,0,0,.6-6c.8-3.6.2-7.1-.4-10.7.5-1.8-.3-3.9,1.1-6,3.5,2.2,8.2,1.5,11,5.1,0,4.1,3.7,6.4,4.8,9.7a53.2,53.2,0,0,1,2.7,14.2c.5,15.4.2,30.8.2,46.3.1,6.7-1.1,7.1-7.1,3.3-10.4-6.5-20.8-13.2-31.1-19.9-1.8-1.2-3.6-2.5-6-1.9-2.2,2.7.6,3.4,1.9,4.4,2.9,2,6.1,3.6,8.6,6s2.8,4.7-1,7.8-7.4,2.2-11.2-.7c-2-1.5-5.2-2.4-7,1.1,2.4,1.7,5.3,2.2,7.4,4.5,3.5,4,5,8,2.4,13a6.2,6.2,0,0,0,.2,7.8c1.7,2.2,2.2,4.8,2.6,7.4a5.8,5.8,0,0,1-2.8,6c-2.3,1.5-3.8-.5-5.2-1.6-5.7-4.3-7.5-9.9-5.3-16.7-.6-1.1-2.3-1.4-2.2-3.2,1.7.4.8,2.6,2.2,3.1s6,2.7,7.3-2a5.4,5.4,0,0,0-1.9-2.8c-4.6-4.2-5.9-9.5-4.7-15.5-3-.2-4.3-1.9-4.9-4.9s-3-5.8-7.1-5.3c-.8,1.2,0,2.2.5,3.2a31.3,31.3,0,0,1,2.1,3.4c1.3,2.8,2.3,6-.4,8.1s-4.6-1-6.6-2.5l-.7-.3a2.1,2.1,0,0,0-1.3.3c-1.8,3.5-3.1,7.3-6.3,10a2.8,2.8,0,0,0-.5,3.7c2,3.1,1.5,7.6,5.1,10,1.3.8.7,2,.6,3.1s.4,3.2,2.1,3.5a2.1,2.1,0,0,0,2.6-1.7h.1c-.6,4-2.5,5.1-7.3,2.6a49.7,49.7,0,0,0-13.4-5.2c-1.5-.3-3.4-1.5-4,1.2s2,2.1,3.3,2.9c12.7,7.3,25.1,15.2,37.9,22.2,2,1.1,4,2.7,6.5,2.1,2.4-2.5,3.5-5.8,5.9-8.4,5.3-5.7,11.8-7.7,19-8.1,3.6-.2,5.9-1.5,7.5-4.6a8.7,8.7,0,0,1,7-5.1c1.6-.2,3.6-.8,4.3-2.2,2.3-4.5,6.5-6.3,10.6-8.5s5-4.9,4.6-9.1a71.5,71.5,0,0,1,.9-17.3c-.7-15-.1-29.9-.3-44.8-.1-2,.4-4-.9-6.6-5.6,5.5-2.4,13.4-6.2,19.2-1.4-1.1-1.2-2.6-1.4-3.9-2.7-14.8-3.1-29.7-2.4-44.7.2-4.9-.2-9.7-4.7-13.1v2.8c-1.3,3-2.7,6-6.1,7.4l-1.6,1.2c-4.5,1.1-6.5-2.4-9.2-4.7-.5-1.5.1-2.3,1.4-3S407.6,222.8,407.6,220.4Z"/>
    <path id="Trazado_790" data-name="Trazado 790" class="cls-88" d="M419.6,220.9c5.1,8,2.9,16.9,2.9,25.4a235.7,235.7,0,0,0,3.2,36.5c.2,1.5.4,3.3,2.1,3.5s1.4-1.8,2-2.9c2.4-4.6,1.7-9.7,2.8-14.5.4-1.4.1-3,2-4.3v51.3c-.9,9.3-.2,18.7-1.4,28,.2,11.2,0,22.5.1,33.7,0,2.2-.5,4.7,1.6,6.4l.7-2.2a30.6,30.6,0,0,0,0-21.9V318.8c1.1-1.6,1.4-3.3,0-5,0-21.9-.1-43.8-.1-65.7,0-9.8,0-19.6.1-29.4.1-2.6-.7-4.3-3.1-5.5-4-2.1-7.9-4.3-11.8-6.5C420.4,211.5,419.1,216.1,419.6,220.9Z"/>
    <path id="Trazado_791" data-name="Trazado 791" class="cls-89" d="M374.5,195v51.8c4.8-3.9,9.2-7.2,13.4-10.9,2.5-2.2,4.9-4.1,8.6-4.1s4.6-2.9,2.5-5.6c-.8-1-1.7-1.7-1.2-3s1.9-.5,2.9-.4,2.5.1,2.7-1.5c1.1-5.5,4.6-10.6,3.3-16.5-.1-2.4-.2-4.8-.2-7.1-2-1.9-3.8-4.3-7.1-2.9-.4,2.2,1.2,3.3,2.6,4.4a4.7,4.7,0,0,1,2.2,3.7c.1,1.6.5,3.4-.9,4.7s-3.2.3-4.6-.5c-7.3-3.6-14.2-7.8-21.6-11.3C376.3,195.4,375.6,194.4,374.5,195Z"/>
    <path id="Trazado_792" data-name="Trazado 792" class="cls-90" d="M399.6,194.7l6.9,3c0-2.3.1-4.5.2-6.7l-46.3-27L313,137.1l-6.9-4.1-1,.3c-1.8,2.3-.7,4.5.1,6.7s6.1,4.9,9.5,6.9l43.1,24.8c11.8,6.5,23.3,13.6,35,20.1C394.9,193,397,194.6,399.6,194.7Z"/>
    <path id="Trazado_793" data-name="Trazado 793" class="cls-91" d="M413.7,232.1c4-1.4,6.9-3.5,5.9-8.4-2.6.4-5.2.8-6.9-2l-.6.3a14.8,14.8,0,0,1-9.1,5.2,1.4,1.4,0,0,0-.7,1.1c1.5,2.3,4.6,2,6.5,3.8a16.8,16.8,0,0,1,6.5-4.3C415,229.4,412.5,230,413.7,232.1Z"/>
    <path id="Trazado_794" data-name="Trazado 794" class="cls-91" d="M407.6,220.4c-1.5,1.1-2.3,3-4.3,3.4s-2.1,2.3-1.7,4.1.6.5.9.1l.2-.3a84.3,84.3,0,0,1,9.7-5.6l.3-.4C411.3,220.2,409.2,221.1,407.6,220.4Z"/>
    <path id="Trazado_795" data-name="Trazado 795" class="cls-92" d="M130.5,288.8c.9-3.5-.2-5.3-1.6-7.6C128.3,284,129.1,285.9,130.5,288.8Z"/>
    <path id="Trazado_796" data-name="Trazado 796" class="cls-93" d="M375.5,377.7c-10.2-4.7-19.5-10.8-29.1-16.3-6.1-3.5-12.1-7.1-18.1-10.7s-11.5-8-17.9-10.9a2,2,0,0,0-2.8.5l-.2.3a5.6,5.6,0,0,0,.7,5.6c7.1,5.6,15.4,9.3,23.1,13.9l44.2,25.6c2.2-1.4,1.8-3.8,2-5.9a2.3,2.3,0,0,0-.4-1.6C376.6,377.7,376.2,377.4,375.5,377.7Z"/>
    <path id="Trazado_797" data-name="Trazado 797" class="cls-94" d="M376.4,378.3l1,1.5a2.2,2.2,0,0,1,2.2,1.2,1.4,1.4,0,0,0,1.4-.3c2.3-6.4,6.8-10.4,13.3-12.4a14.7,14.7,0,0,0,4.7-2.7,2.5,2.5,0,0,0,1-3c-.5-1.4-1.8-1.4-2.9-1.3C388.7,362,379,370,376.4,378.3Z"/>
    <path id="Trazado_798" data-name="Trazado 798" class="cls-95" d="M380.6,381.1h-1c-.3,3.9-.3,7.7,3.7,9.9,1.1-2.7,3-5.4.4-8.4A3.1,3.1,0,0,0,380.6,381.1Z"/>
    <path id="Trazado_799" data-name="Trazado 799" class="cls-96" d="M179.4,451.1l1.7,2.6c2.2,1.7,4.4-.3,6.9.2-1.3,3.3-.1,5.3,3.5,5.6,2.2-1.4,4.1-4.1,6.8-1,1.6.3,3,.5,3.7-1.4-1.9-2.4-1.7-5.4-2.6-8.2C191.4,442.5,186.3,443.1,179.4,451.1Z"/>
    <path id="Trazado_800" data-name="Trazado 800" class="cls-97" d="M191.9,458.9c-1.6-.9-6.7-.4-1.5-3.9a1.6,1.6,0,0,0,.2-2.1h-.1a1.9,1.9,0,0,0-2.2-.7l-7.2,1.6c-.5,7,6.8,3.8,9.2,6.7-.2,2.2-3,.5-3.2,2.5l3.9.7a31.2,31.2,0,0,0,6.8-.5,10.9,10.9,0,0,0,2.3-.9c1-.6,2.2-1.1,2-2.5s-2-1.3-3.2-1.4l-1.4-.2C195.4,457,193.8,458.8,191.9,458.9Z"/>
    <path id="Trazado_801" data-name="Trazado 801" class="cls-98" d="M179.4,451.1a29.2,29.2,0,0,0,3.7-2.4c5.3-4.4,10.6-4.2,15.7.4,1.4,2.5,3.9,3.5,6.2,4.7,4,2.1,7.5,4.9,11.4,7.2,1.5-.9,1.2-2,.5-3.2L193.5,444a5.2,5.2,0,0,0-5.6.1c-3,1.8-6.1,3.4-9.1,5.1C178.6,450,178.1,450.8,179.4,451.1Z"/>
    <path id="Trazado_802" data-name="Trazado 802" class="cls-99" d="M306.1,140.1c-.3-2.3-.7-4.5-1-6.8-8.3-6.5-17.8-10.9-26.8-16.2-13.2-7.8-26.6-15.3-39.9-22.9l-2.7-2.1-12.6-6.3c-2.7-.1-3.2,1.4-3.3,3.8-1.9,41-.5,82-.9,123.1,0,1.1-.1,2.3.9,3.2,2-2,1.6-4.6,1.7-7,0-8.3-.5-16.6-.1-24.8-.7-17.6,1.4-35.2.9-52.8-.1-12.1,0-24.2-.1-37.1,18.7,10,36,20.9,53.9,30.4,8.5,4.5,16.6,9.7,25,14.2C302.6,139.6,304.1,141.2,306.1,140.1Z"/>
    <path id="Trazado_803" data-name="Trazado 803" class="cls-100" d="M380.6,381.1l3.1,1.4c4-1.9,2,2.8,3.7,3.3,7.8,2.8,14.3,8,21.6,11.7l5.7,3c5.1,1,8.7,4.7,13.1,7,1.9.9,3.7,2.2,5.8,2.5.9-1.9.6-3.6.6-5.2V349.4c0-1.8-.4-3.7.4-5.5v-28c-1.8,4.9-1.4,10.1-1.5,15.1s-.9,8.8-6.7,10.7c-3.1,1.1-6,1.9-6.7,5.7a4,4,0,0,1-4.1,3.2c-5.3-.5-7.3,3.1-9.3,6.8-1,1.9-1.8,3.1-4.4,2.6-5.1-1.1-9.4,3.3-14.8,2.1-1.8-.4-1.3,3.2-3.4,4.5-3.9,2.5-7.7,5.8-8.2,11.1l.9.6c3.5-8.8,10.6-13.1,19.3-15.5,1.2-.4,2.7-1.7,3.5,0s-1.3,2.4-2.5,3c-3,1.5-6.2,2.5-9.1,4.1C383.2,372.3,380.5,375.9,380.6,381.1Z"/>
    <path id="Trazado_804" data-name="Trazado 804" class="cls-101" d="M308.1,346.2c.5-2.1-.6-4.3.5-6.4s6.9-1.4,8.4-5.3-.4-4.4-1.9-6.2-2.5-3.8-3.3-6a13.9,13.9,0,0,0-8.7-8.2,10.6,10.6,0,0,1-6.3-1,6,6,0,0,0-6.9.5c-3.4,4.5-2.3,9.4-1.7,14.3,1,1.2.7,2.7.7,4.1,0,3.9.3,7.9.1,11.8s1.1,4.8,3.7,6.2C298,352.8,305.4,351,308.1,346.2Z"/>
    <path id="Trazado_805" data-name="Trazado 805" class="cls-102" d="M430.2,155c-.6,2.1.4,3.9.9,5.8s-.8,3.3-2.3,4.4-3.1,3.8,0,5.7c4.8,1,5.9.1,5.1-4.7a13.2,13.2,0,0,1,1.1-8.1c-4.2,1-3-2.4-3.5-4.4Z"/>
    <path id="Trazado_806" data-name="Trazado 806" class="cls-103" d="M130.5,234.9c.3-1.6.5-3.2.8-4.8-2.2-2.6-3.7-2.2-6.2.4-4.6,5-4.4,7.9,2.2,11.6C127.6,239.3,127.3,236.3,130.5,234.9Z"/>
    <path id="Trazado_807" data-name="Trazado 807" class="cls-104" d="M428.8,170.9c-1.5-1.9-.7-3.8,0-5.7s.2-5.8-1.2-10.4c-1.3,6.1-1.4,11.6-7.8,12.3-1,5.8.4,10.7,6,13.7a40.1,40.1,0,0,0,4.9,0c2.4-.2,4-1.2,4-4s-.3-4.2-3.4-4A2.4,2.4,0,0,1,428.8,170.9Z"/>
    <path id="Trazado_808" data-name="Trazado 808" class="cls-105" d="M205.7,470.7c-2.3,3.7-1.8,6.1,3.1,6.1,2.1.1,4.6.1,5.2-2,1.3-4.3,5.5-4.7,8.3-6.3,5.3-2.9,6.1-4,2.6-8.7-2-.4-3.8-1.4-6-1-1.4,3.2-4.2,4.9-7,6.7S206.4,467.5,205.7,470.7Z"/>
    <path id="Trazado_809" data-name="Trazado 809" class="cls-106" d="M205.7,470.7c3.3-2,6.6-4.2,10.1-6s3.6-3.1,3.1-5.9l-2-1c-.1,1.1.2,2.3-1.2,2.8-3.1-.9-4.9,1.4-7.1,2.7s-4.2,1.7-6.5.5-3.3-1.4-5.2-1.1-4.1-.3-5.9.9C195.8,466.1,199.9,470.1,205.7,470.7Z"/>
    <path id="Trazado_810" data-name="Trazado 810" class="cls-107" d="M436.7,249.8c0,8.8-.1,16,0,23.1s2.7,13.2,2.2,20.2c-.2,3-2.9,6.8.2,9.3s6.1,1.3,9.2,2.1,5.3,1.6,6.8,4.7c.7,1.5,1.8,3.8,4.5,2.7s4.6-1.5,4.3-5c-1-13.9.5-27.8-.3-41.7-.3-5.6-.8-11.1.1-16.7s-2.8-9.7-2.2-15c.3-2-2.2-1.8-3.5-1.7-7.4.4-8.9-5.1-10.1-10.3-.6-2.6-2.1-3.7-3.9-4.7-3.7-2.2-5.6-.8-6.4,3.4C435.9,230.6,437.2,241.1,436.7,249.8Z"/>
    <path id="Trazado_811" data-name="Trazado 811" class="cls-107" d="M435.6,359.9v21.9c1.4,5.4,2.8,10.8,1.1,16.3s-1.8,8.2,3,10.7c2,1,1.4,2.2.7,3.7s-2.6,2.2-.4,3.1,3.7.3,3.8-2.4a13.4,13.4,0,0,1,.7-2.7c2.1,3.9.3,7.3,1.1,10.5s.1,4.6,3.6,3.1c1.6-.6,2.9.5,4.3,1,5.7,2.1,9.9-.3,9.1-6.1-1.4-10.7,1.2-21.2.9-31.6-.4-13.6-.6-27.2-.7-40.9,0-3.8-3.2-4.8-5.6-6.3s-3.1.6-4,2.3a2.1,2.1,0,0,1-2.8,1.1l-.6-.4c-1.1-.9-3.4-1.3-1.6-3.7a1.9,1.9,0,0,0-.1-2.8l-.9-.4a12.3,12.3,0,0,0-8,.9c-1.9.8-2.7,3.3-2.3,5.6.7,4.6-1.1,9.2.6,13.8C437.8,357.6,436.8,359.1,435.6,359.9Z"/>
    <path id="Trazado_812" data-name="Trazado 812" class="cls-108" d="M459.8,322.6c-.3,4.1.7,8.7-3.7,10.7s-7.3-1.8-10.1-4.6a15.5,15.5,0,0,1-4.4-11.8c.2-5.7,3.7-7.7,8.7-4.7,1.3.7,2.5,1.6,4,2.6a9.2,9.2,0,0,0-9.5-6.1c-3.8.6-5.1,3.3-5.2,6.8-.3,7.4,3.1,13.2,8.5,17.8,2.7,2.2,6,3.8,9.8,1.8s2.9-5.5,2.9-8.8A15.6,15.6,0,0,0,459.8,322.6Z"/>
    <path id="Trazado_813" data-name="Trazado 813" class="cls-109" d="M434.6,343.9c-1.5,1.6-.9,3.5-.9,5.3v60.3c-5.2-1.9-9.1-5-13.3-7.5-1.7-1-3.2-3.1-5.7-1.5l20.2,11.9V384Z"/>
    <path id="Trazado_814" data-name="Trazado 814" class="cls-107" d="M435.7,313.9v5c1.3-.8,3.1-1.2,2.9-3.3S437,313.9,435.7,313.9Z"/>
    <path id="Trazado_815" data-name="Trazado 815" class="cls-107" d="M460.4,335.9c-.9.1-1.8.3-1.9,1.2s.9,1.6,1.9,1.6,1.8-.5,1.8-1.4S461.3,336,460.4,335.9Z"/>
    <path id="Trazado_816" data-name="Trazado 816" class="cls-110" d="M139.5,101c.1,4.3.4,8.6.1,12.9s1,6.7,4.8,8.2l3.9,2.2c3.1,2.1,4.7,1.9,4.3-2.4-.1-2.3,0-4.7.1-7s-.1-3.3-.1-4.9c-.1-8.8-1.6-11.2-9.9-13.9C137.4,94.4,140.9,99.5,139.5,101Z"/>
    <path id="Trazado_817" data-name="Trazado 817" class="cls-111" d="M134.3,166.9c5.2,7,13.4,9.7,20.7,13.4,2.9,1.5,4.1-1.9,3.1-4.2-2-4.3-3.7-8.7-6.4-12.8s-6.8-1.8-10.2-2.8C138.4,161.8,133.1,160.8,134.3,166.9Z"/>
    <path id="Trazado_818" data-name="Trazado 818" class="cls-112" d="M142.1,54.2c-2-.5-4-2.4-5.9-.4s-.9,4.2-.1,6.1,2.6,4.3,5.5,4.5a2,2,0,0,0,1.7-.6c1.7-4,3-2.9,5.7-.5s7.8,1.2,8.2-3.8-4.1-12-8-13.6-6.2-.2-7.1,3.8C141.7,51.2,142.7,52.6,142.1,54.2Z"/>
    <path id="Trazado_819" data-name="Trazado 819" class="cls-113" d="M142.8,219c-2.9,5.2-.8,9.7,2,14.2s3.6.7,5.1-.2,4.3-1.6,1-4-.4-4.8-1.5-7S146.2,217.3,142.8,219Z"/>
    <path id="Trazado_820" data-name="Trazado 820" class="cls-114" d="M142.8,219l6.6,3c1.8-5.6-2.3-7-6.6-8.9Z"/>
    <path id="Trazado_821" data-name="Trazado 821" class="cls-115" d="M288.2,327.9c1.6-2.6.7-5.5,1-8.3s.2-4.4,2-6a10.2,10.2,0,0,0,3-2.1c1.2-1.9.2-3.5-.4-5.2-1.8-5.6.3-8.6,6.2-9.1,2.2-.2,4.8.4,6.1-2.4,1.2-9.6.7-19.3.3-28.9a4.1,4.1,0,0,0-1.1-2.3c-8.5-7.2-19-11.6-28.4-17.6-3.3-2-6.3-5.1-10.7-4.4-1,1.6.3,2.4,1.3,3.2s2.9,1.6,4.2,2.7,6.4,3.4,4.8,7.6-6.2,7.1-11.5,5.6c-1.7-.6-3.8-1.6-4.9.4s1,2.9,2,4.1a23.4,23.4,0,0,1,4.7,6.6,5.8,5.8,0,0,0-5.7-1.6c-4,3.1-4.1,4.9-.1,7.4s5.6,2.9,8.3,6.5c-4.8-1-7.9-3.1-11.2-4.6-.9-.4-1.6-1.1-2.5-1.6s-3.7-1.7-4.9.4.2,3.5,1.8,4.5c3.6,2.2,6.5,5.3,10.2,7.4a8,8,0,0,1,4.1,5.4,129.7,129.7,0,0,0-21.3-9.3c-3.2-1.2-4.9-4.4-7.2-6.9a3.6,3.6,0,0,1-.6-3.6c.4-1,.7-2-.4-2.7-2.6-1.5-2.9,2.2-5.3,2.3-.4-3.9-2.4-5.9-6.8-5.5s-1-4.3-4.8-5.2c0,8.2-.4,16.2.3,24.2,10.7,6.3,21.2,12.6,31.9,18.7Z"/>
    <path id="Trazado_822" data-name="Trazado 822" class="cls-116" d="M261,270.9l7,1.4c-1-4.9-4.8-7.4-7.3-10.4a1.2,1.2,0,0,1,1.8-.9c9.5,3,9.5,3,15.4-4.9,1.9-2.6.2-4.3-1.2-6.2-2.8-3.6-7.7-4.5-10.6-8,.4-1.7-.8-2.4-1.9-3-6.3-3.7-12.4-7.5-18.6-11.3-3.1-.6-5.2-3.7-8.6-3.3-.6.4.1-.1-.5.2-3.1,1.7-4.7,6.7-7.6,6.3s-4.5-4.4-7.6-6.2c-1.7,1.5-.5,3.5-1.1,5.1v14.1c1.4,2.3.5,4.8.6,7.2s1.5,3.9,4.2,3.6,6.3-.6,8.9-2.6,2.6-1.6,3.9,0a4.3,4.3,0,0,1,1.4,4.5,22.9,22.9,0,0,1,.3,6.4c-.1,2,.9,4.4,3.6,2.2s3-.7,4.8-.1C252.5,266.6,256.4,269.5,261,270.9Z"/>
    <path id="Trazado_823" data-name="Trazado 823" class="cls-117" d="M238.9,251.8c-1.1-2.6-2.6-4.1-5.1-1.3s-6.4,2.2-9.7,3-1.8-1.9-2.3-3.3,1.9-5.1-1.6-6.4l-.3,43.5c0,.5.6,1.1.8,1.7V266c1.9.7,1.1,2,1.1,2.9,0,2.9.1,4.7,3.8,2.4,1.6-1,4.5-1,4.4,2.4-.1,1.7,0,4.1,1.4,4.3s3-1.5,3.7-3.3,1-2,2-.7-.7,1.3-1.2,1.9c1.2,1.1,2.6,2.1,1,3.9,4.3,7.5,12.3,9,19.4,12a85.2,85.2,0,0,1,8,4c1.4.7,2.9,1.8,4.1.4s-.3-2.6-1.2-3.7c-3.9-4.2-9-6.7-13.4-10.2-1.3-1-3.6-1.6-2.4-3.6s3.4-.3,4.3.7c3,3.2,7.8,2.9,10.8,6a2.7,2.7,0,0,0,3.7-.4c1.3-1.5,0-2.5-.9-3.3a26.2,26.2,0,0,0-7.5-4.9c-3.6-1.6-3.5-3.6-.8-5.9-2.5-3.1-6.2-4.3-9.6-5.8-1.4-.7-2.9-.8-4.2-2.1s-3.2-2-4.3.6c-.3.7-.5,1.8-1.5,1.4s-1.6-1.9-.9-2.5c3.2-2.6-.7-4.3-.5-6.5C237.9,255,237.3,253.6,238.9,251.8Z"/>
    <path id="Trazado_824" data-name="Trazado 824" class="cls-118" d="M220.2,229.7l1-3.7c2.3,2.1,5.7,3.2,6.6,6.9a1.4,1.4,0,0,0,1.9.8,1.1,1.1,0,0,0,.8-.7c1.2-3.5,4.8-5,6.4-8.1-3.4-5.7-2.5-12-2.5-18.2a19.8,19.8,0,0,0-.6-5.9c-.9-1.7-2-1.1-3.2-.3s-1.8,2.4-3.5,3.2c-3.4-4.2-4.7-9-5-14.3-.1-1.8.6-4-1.7-5.2l-.6,31.7C219.9,220.5,220.1,225.1,220.2,229.7Z"/>
    <path id="Trazado_825" data-name="Trazado 825" class="cls-119" d="M202.7,156.3c.1,2,.8,3.6,3.2,3.5s2-1.8,1.8-3.2-.8-3.7-3.1-3.6S202.8,154.9,202.7,156.3Z"/>
    <path id="Trazado_826" data-name="Trazado 826" class="cls-107" d="M373.5,248.9v-54c-.7-2.5-2.9-3.5-4.9-4.6-9.7-5.4-19.1-11.2-28.8-16.6s-18.7-10.8-28-16.2c-2.1-1.2-4.3-3.5-7.2-1.1-1.1,2-1,4.1-1,6.3.1,11.3-.2,22.7.2,34.1a18.9,18.9,0,0,0,1.3,5.7c6.1,11.7,11.3,23.8,17.3,35.5,1.6,3.6,3.7,6,8.1,4.2,2.4-1,3.8.4,4.7,2.4s3,5.2,4.4,7.8a21.4,21.4,0,0,0,1.7,3c2.3,2.8,4.3,2.8,6.1-.4a95.5,95.5,0,0,0,4.9-10.2c1.3-3.1,2.4-6.4,5-9.7,1.4,5,2.5,9.5,3.4,13.9,3.3,16.8,7.4,33.4,10.1,50.3.1,1.1-.2,2.5,1.3,3a1.8,1.8,0,0,0,2.1-1.2c-.5-16.3-.1-32.5-.3-48.8A5.7,5.7,0,0,0,373.5,248.9Z"/>
    <path id="Trazado_827" data-name="Trazado 827" class="cls-120" d="M373.3,301.8l-1.4-.2c-2.4-3-5.8-4.3-9.2-5.6-10.2-6.7-21-12.5-31.5-18.7-1.6-1-3-2.1-4.9-2.3a3.7,3.7,0,0,0-2.1.6c.2,3.5,3.1,4.6,5.4,5.9a187.5,187.5,0,0,1,16.8,9.7c1.5.9,3,1.4,1.6,3.6s.3,1.8.8,2.7,2,2.6.3,3.9a3.7,3.7,0,0,1-5,.3c-.6-.4-1-.9-1.5-1.3s-2.6-1.8-4.1-.7-1.2,2.9-.6,4.5,1.4,2.3,1.9,3.5a29.9,29.9,0,0,1,1.7,20.2c-4.8,4.4-6.3,4.5-11.7,1a9.3,9.3,0,0,0-3.4-1.8c-4.7.5-8.1,2.8-9.8,7.2-1.8,1.7-3.4,3.5-6.3,2.9s-2.3,1-1.7,2.6l19.7,10.9c4.6-.4,8.6,1.4,12.6,3.2a18.2,18.2,0,0,1,4.3,2.4c2.2,2.1,4.8.8,7.1.8,4.6,0-.5-3.7,1.6-5.1.4-.2.3-1.3.5-2.2a10.4,10.4,0,0,0-1.6.6c-1.2.6-.8,4-3.2,2.5s-.5-2.7.8-4-.3-1.6-1.2-2c-3-1.1-4.4-3.2-4-6.4.2-1.3-.8-2.1-1.6-2.9s-1.4-2.4.1-3.3c3.8-2.5,5-6.3,5.6-10.4.3-1.9-.6-3.6-1-5.3-1-5-.3-6,4.7-6.1a3.4,3.4,0,0,0,2.4-.6c3.5,1,6,2.6,6.3,6.9s2.1,5.4,5.8,3.1h0c2.9-1.8,5-1.2,7.8.9s5.8,6.8,9,.3c.2-.5,1.1-.7,1.7-.9s4.9-.3,4.8-3.3a9,9,0,0,0-3.7-6.8c-3.7-3-8.5-4.5-11.6-8.2A2.4,2.4,0,0,0,373.3,301.8Z"/>
    <path id="Trazado_828" data-name="Trazado 828" class="cls-121" d="M373.3,301.8l2.2,2.1c4.8.2,7.9,3.8,11.6,6.1,10,6.2,19.6,13,29.9,18.6,3.4,1.8,4.7,1.2,4.7-2.9-.1-16.7.2-33.4-.2-50.2-.1-5.9-1.9-11.7-2.9-17.6a2.9,2.9,0,0,0-.2-.9c-6.5,1.1-1.9-5.8-5-7-.9.9-.9,2-1,3.2-.5,6-.5,6-6,2.9-2.2-1.3-4.2-3.3-7-3.2-.1,3.1,2,6.1.3,9.2a15.9,15.9,0,0,0,8.1,4.5,5.1,5.1,0,0,1,3.1,1.5,6.4,6.4,0,0,1,1,7.4c-1.4,2.2-3.4-.3-5.1-1.1a29,29,0,0,1-7.5-5.5c-2.4,1.8-2.3,3.4.3,5l3,1.7c.8.7.3,1.6-.1,2.3s-1,0-1.6-.4c-2.6-1.5-5.3-2.5-4,2.5a.4.4,0,0,1,0,.5c-.5.4-1,1.2-1.4,1.2-4.7-.9-6.5,8.5-12.3,3.3-3.5-3.3-3.7-.5-3.7,2.1s0,7-.1,10.5c0,1.4-.4,2.7-2,3s-1.8-1.5-2.4-2.6-.5-3.6-.5-5.4c0-12.8,0-25.7-.1-38.5,0-1.7.7-3.7-.9-5.2C373.4,266.5,373.4,284.2,373.3,301.8Z"/>
    <path id="Trazado_829" data-name="Trazado 829" class="cls-122" d="M339.4,174.6,369,191.9l4.5,3h1c4.3,4.5,10.8,5.5,15.7,9.1,2.8,2.1,6.1,3.4,9.2,5s6,.6,6.2-3.7.5-6.3-3.5-7.7c-1.1-.3-1.7-1.9-2.5-3-13.4-8.4-27.2-16.3-41.2-23.8-2.6,2.5-7.3.9-9.2,5.1-.6,1.3-2.6-.6-4-1S341.5,171.8,339.4,174.6Z"/>
    <path id="Trazado_830" data-name="Trazado 830" class="cls-123" d="M399.3,268.9c.7,2.4,10.2,9.8,12.7,9.7a1.4,1.4,0,0,0,1.1-.6c2.9-3.9-.7-12.1-5.6-12.6-3-.2-4.7-3.4-7.8-3.3C399.5,264.4,399.4,266.6,399.3,268.9Z"/>
    <path id="Trazado_831" data-name="Trazado 831" class="cls-124" d="M399.4,252.9a86.7,86.7,0,0,0,13.5,7.9c.9-3.8.3-7.3.4-10.8-3.6-3.4-9.1-2.6-13.4-6.6C399.7,247.1,399.5,250,399.4,252.9Z"/>
    <path id="Trazado_832" data-name="Trazado 832" class="cls-125" d="M346.4,336.5a15.5,15.5,0,0,0,7,11.7c3.5,2.4,8-.6,7.9-4.9s-5.4-11.5-9.2-12.9S346.5,332.1,346.4,336.5Z"/>
    <path id="Trazado_833" data-name="Trazado 833" class="cls-126" d="M378.4,339.8c4-8.5-1.8-17.9-10.9-17.9h0c-3.7,6.6-2.3,11,5.9,18C375.1,341.2,376.8,340.9,378.4,339.8Z"/>
    <path id="Trazado_834" data-name="Trazado 834" class="cls-127" d="M355.4,311.9c-2.8-.6-6.1-2.7-8,.7s-.3,7.8,2,11.3l1.1-.2c.2-2.1.1-4.3,2.2-5.7s1.8-.9,2.7-.2a2.7,2.7,0,0,1,1.2,2.6,1.6,1.6,0,0,1-1.7,1.5c-1.7.1-3.4.2-4.4,1.8,1,3.9,4.1,5.9,7.4,4.5s2.9-6,1.9-9.2S356.9,314.2,355.4,311.9Z"/>
    <path id="Trazado_835" data-name="Trazado 835" class="cls-128" d="M378.4,339.8h-5c-.1,1.2-.6,1.9-1.9,1.4a5.8,5.8,0,0,0-5.1.5h0c-5.6,6.8,1,17.4,8.9,20.7,2.2,1,6.2-3.2,6-6.5s-.2-6.2-2.4-8.8S375.7,342.5,378.4,339.8Z"/>
    <path id="Trazado_836" data-name="Trazado 836" class="cls-129" d="M413.7,232.1l.3-.9c.8-2.1,5.4-2.5,3.5-4.8s-4,1.7-6.4,2-2.4,1.7-2.4,3.3,2.2,2.1,3.9,1.3Z"/>
    <path id="Trazado_837" data-name="Trazado 837" class="cls-120" d="M359.4,331.6c.2,1.3.1,3.1,2.5,2.5s3.3-.2,2.8-2.5-.5-3.5-2.7-3.6S359.4,329.7,359.4,331.6Z"/>
    <path id="Trazado_838" data-name="Trazado 838" class="cls-130" d="M412.6,233c-1.4-.1-2.8-.2-3.9-1.3-.8-3.3-4.7-1.5-6.2-3.7h-.9c0,1.1-.2,2.7,1.3,2.8a6.1,6.1,0,0,1,4.9,2.8C409.5,235.5,411.3,235.3,412.6,233Z"/>
    <path id="Trazado_839" data-name="Trazado 839" class="cls-120" d="M366.4,341.8c.2-1.8.3-3.5.5-5.7-2.1.7-4.4,1.3-4.3,3.8s2.4,1.4,3.8,1.9Z"/>
    <path id="Trazado_840" data-name="Trazado 840" class="cls-131" d="M339.4,174.6c3.5-.7,5.7,1.8,8.3,3.3s3.5.8,3.3-.9c-.5-3.7,2.2-2.9,3.8-2.9s3.6-.8,3.6-3.2l-46.5-27c-2-1.2-3.9-2.6-5.8-3.8L276.9,124c-2.4,2-.1,3,1.1,3.8,2.7,1.8,2.4,3.7.7,5.9s-3.3.5-5.1-.3c-4.1-1.7-7.4-5.8-12.6-4.7-.7,2,.8,2.8,2.1,3.5,4.7,2.8,9.2,6.1,14.3,8.2a11.7,11.7,0,0,1,9.6,5.1c5.9,4.2,11.9,8.4,19.1,10.5Z"/>
    <path id="Trazado_841" data-name="Trazado 841" class="cls-132" d="M412.4,222.1c-4.7-.6-7.5,2-9.7,5.6C407.4,228.3,410.7,226.7,412.4,222.1Z"/>
    <path id="Trazado_842" data-name="Trazado 842" class="cls-133" d="M201.7,464.8c2.2,1.9,4.3,1.7,6.6,0s4.8-2.9,7.4-4.2c.1-2.6-2.2-3-3.8-4-4.3-2.6-8.7-5-13.1-7.5,1,2.6-2.6,6.9,3,7.9C204.6,459.6,201.9,462.2,201.7,464.8Z"/>
    <path id="Trazado_843" data-name="Trazado 843" class="cls-134" d="M201.7,464.8c2.5-2.6,5.5-5.2.1-7.8-1.2,1.1-2.7.7-4,.8s-1.2,0-.9.9l4.9.6c-1.3,2.2-4.1,1.5-4.9,3.4C198.4,463.5,199.8,464.9,201.7,464.8Z"/>
    <path id="Trazado_844" data-name="Trazado 844" class="cls-135" d="M196.9,458.7l.9-.9c-.2-1.9-1.1-3-3.2-2.9s-1.4,2.9-2.7,4C193.6,460.4,195.2,458.1,196.9,458.7Z"/>
    <path id="Trazado_845" data-name="Trazado 845" class="cls-136" d="M260.7,129.1c5,.8,9.2,3.3,13.2,6.2,2.1,1.5,3.9,2.8,5.6-.3s4.7-5.2.1-7.7c-1.5-.8-3.4-.9-2.7-3.3l-38.3-22.2-14.3-8.2c-2.4-1.4-3.6-1.2-3.5,2,.1,11.4.1,22.9.1,34.3,1.1,6.5.1,12.9.5,19.4,3.6,2.5,6,2.1,7.9-1.7s5.6-8.7,4.2-14.4c-.5-1.8.7-3.9,1.2-5.8a6.3,6.3,0,0,0,.3-1.9c.8-8.6.8-8.6,8.6-4.3,3.7,2.1,7.3,4.5,11.1,6.4C256.6,128.6,258.4,130.2,260.7,129.1Z"/>
    <path id="Trazado_846" data-name="Trazado 846" class="cls-137" d="M221.9,149.9c-.6-6.6,1.1-13.4-1-20-.1,18.1-1.3,36.2-.5,54.3,1.2,3.5.7,7.2,1,10.8s4,6.3,3.9,10.3c0,1.6,1.7,1,2.6,0s3.3-3.6,5-5.4a3.7,3.7,0,0,0,1.3-3.1c0-11.9.7-23.9-.3-35.8-1.5-2.4-2.4-.9-2.9.6s-.4,4.9-.5,7.4-.2,5.3-2.8,7.4c-2.8-4.1-4.5-8-4.5-12.9S224.5,154.2,221.9,149.9Z"/>
    <path id="Trazado_847" data-name="Trazado 847" class="cls-87" d="M406.5,361.2a2.5,2.5,0,0,0-2.1,2.4c-.3,1.8,1.5,1.4,2.4,1.6s2.5,0,2-1.8A2.6,2.6,0,0,0,406.5,361.2Z"/>
    <path id="Trazado_848" data-name="Trazado 848" class="cls-138" d="M292.6,311.8l-1.4,1.8c2-.2,3.8-.9,5.8.9s3.8,2.1,5.6-.1,3.9-3.4,4.4-6,1.3-5.4-2.5-6.3c-3.3,1.2-6.9,1.7-6.6,6.9C298,311.1,294.3,310.7,292.6,311.8Z"/>
    <path id="Trazado_849" data-name="Trazado 849" class="cls-139" d="M316.5,334.3c3.2-2.4,5.4-6,9.8-6.5,2.9-.3,4.1-3,6.4-4.2-.2-3.5-2-4.6-5.3-3.6a25,25,0,0,0-3.5,2.1c-1.8,1.6-4.3,2.2-6,4s-2.5,1.5-3.2,2.9A7.9,7.9,0,0,1,316.5,334.3Z"/>
    <path id="Trazado_850" data-name="Trazado 850" class="cls-140" d="M314.7,329a5,5,0,0,0,3.9-2c-4.6-3.4-6.3-8.9-10.3-12.7-1.4-1.4-.3-3.2-.2-4.8s1.5-6-1.7-8.2c-1,0-2.2-.3-2,1.4,3.6,2.9,1.7,5.8-.3,8.5-.7,1-2.4,1.4-1.5,3.2,4.3,2.8,8,6.2,9.3,11.5A4.2,4.2,0,0,0,314.7,329Z"/>
    <path id="Trazado_851" data-name="Trazado 851" class="cls-141" d="M141.4,110.9c-.1,7.2.7,8.1,10.1,11.5v-5.5c-.7-1.5-.3-3.3-1.5-4.6s-4.5-3.9-7.7-3.9a1.6,1.6,0,0,0-1.2,1.9Z"/>
    <path id="Trazado_852" data-name="Trazado 852" class="cls-142" d="M141.4,110.9l1.2-2.1c3.8-.9,5.9.7,7,4.2l1.9,3.9c0-1.6.1-3.3.1-4.9-.1-9.2-1-10.4-10.5-13.4-.2,1.9,2.1,1.9,2.6,3.3s2.3,2.2,3.6,3.3c-1.9-.9-3.5-2.4-5.7-2.3A8.2,8.2,0,0,0,141.4,110.9Z"/>
    <path id="Trazado_853" data-name="Trazado 853" class="cls-143" d="M141.6,102.9l6.6,4.2c.6.4,1.5,1.1,2.1.2s0-1.9-1-2.4l-5.6-3A2.1,2.1,0,0,0,141.6,102.9Z"/>
    <path id="Trazado_854" data-name="Trazado 854" class="cls-144" d="M150.8,59.9a2.7,2.7,0,0,0,2.8-3.1c0-2.9-3.3-6.9-5.6-6.7s-2.5,1.6-2.3,3.2A7.8,7.8,0,0,0,150.8,59.9Z"/>
    <path id="Trazado_855" data-name="Trazado 855" class="cls-145" d="M140.5,61.7c1.2-.3,2-1,1.7-2.1s-1.1-3.6-3.4-3.5-1.4,1.2-1.3,2.2A3.9,3.9,0,0,0,140.5,61.7Z"/>
    <path id="Trazado_856" data-name="Trazado 856" class="cls-146" d="M306,301.7c2.2,2.9,1.7,6.1.5,8.9s-1,3.2.6,4.7a22.2,22.2,0,0,1,6.9,9.6c1,2.5,2.9,1.7,4.6,2.1,1.2-2.3,4.6-1.5,5.6-4-2.9-4.7-5.6-9.5-4.3-15.3s4.9-7.1,9.5-4.1c7.2,4.6,11.4,10.9,11.6,19.6.1,2-.3,4,1.3,5.6,3.6-2.6,1.2-6.4,1.4-9.4a22.3,22.3,0,0,0-4.3-15c-1-1.2-1.8-2.9-.4-4s2.6.4,3.4,1.6c2.8,4.3,6.3,1.7,8.7.1s0-3.8-1.3-5.2c-2.8-3.1.8-2.7,1.9-3.6-8.5-7-19.3-10.2-27.4-17.5.1-.3.2-.7,0-.9-5.8-4.4-11.7-8.7-19.1-10v31A6.1,6.1,0,0,0,306,301.7Z"/>
    <path id="Trazado_857" data-name="Trazado 857" class="cls-147" d="M244.9,228.8l21.2,13.1c6.8,1.7,11.9,6.6,18,9.8s13.4,8,20,12.1c1-4.1.7-8.3.2-12.4s-.4-9.6-.9-14.4c-.3-2.7-.8-5.6-4.9-3.3-2.4,1.3-2.7-1.1-3.4-2.4s-1-4.3-4.4-3.5c-1.7.4-1.2-1.7-1.1-2.6.2-6-1.5-11.9-1.1-17.9a6.3,6.3,0,0,0-1.1-4.3,1.2,1.2,0,0,0-1.5-.2,5.1,5.1,0,0,0-1.1,3.1c-.2,10.3,0,20.6-.1,30.9-.1,4.7-.6,4.9-4.8,2.6s-8-4.8-12.1-7a5.8,5.8,0,0,1-3.3-5.7c-.1-4.1.1-8.3-.2-12.4a3.7,3.7,0,0,0-1-2.3c-1.2-.8-2,0-2.8.8-1.4,3-.7,6.2-.8,9.3-.3,5-1.1,5.5-5.8,3.4-1.7-.7-3.2-1.6-4.9-2.4s-3.1-1.5-4.6,0A5.2,5.2,0,0,0,244.9,228.8Z"/>
    <path id="Trazado_858" data-name="Trazado 858" class="cls-148" d="M287.1,203.1c-.7,8.3,1.4,16.4,1,24.7,0,1.3-.3,3.1,1.4,3.3s1.2-2.1,2.8-2.9c1.6,3,1.8,7,5.2,9.2l1.2-1.6c.6-.9.8-2.6,2.3-2.2s1.3,1.9,1.1,3.1c-.6,7.3,1.5,14.5,1.1,21.8a9.8,9.8,0,0,0,.9,5.3l1.1,1.1c6.5,3.5,13.1,6.8,19.1,10.9h1.8c.5-2.6-1.5-3.4-3.2-4.4-3.8-2.1-7.4-4.3-11.3-6.4s-5.1-4.8-5-8.9c.3-15.4-.9-30.8,0-46.2a37,37,0,0,0-.3-7.4l-1.4-4.7c-.3-.8-.3-1.6-.6-2.4-1.6-5.4-3.4-6-7.4-2.4S288.5,197.9,287.1,203.1Z"/>
    <path id="Trazado_859" data-name="Trazado 859" class="cls-149" d="M306,301.7c.4-2,.5-4-.9-5.8h-5.9c-6.2.2-9.3,5.3-6.7,11,.7,1.6,2.7,3.3.1,5a33.9,33.9,0,0,0,5.5-.4c1.7-.4,4.4-.9,1.1-3.3-1.3-.9-1.5-1.5.3-2.2a31.7,31.7,0,0,0,4.9-3.2C304.6,302,305.3,301.8,306,301.7Z"/>
    <path id="Trazado_860" data-name="Trazado 860" class="cls-150" d="M237,279.8c1.1.1,2.6.4,2.5-1.2s-1.2-3.3-3.6-2.7A6.6,6.6,0,0,0,237,279.8Z"/>
    <path id="Trazado_861" data-name="Trazado 861" class="cls-151" d="M244.9,228.8c.1-2,.1-4,.2-5.9a2,2,0,0,0,.1-2.2c-4.3-2.8-8.4-5.7-6.8-11.9s-.1-9.8,0-14.8a6.2,6.2,0,0,0-1.2-4.1c-1.7-.5-1.8.8-2.1,1.6.6-12.8.2-25.9.2-39-.4-3.2,1.1-6.8-1.5-9.8a1.8,1.8,0,0,0-1.7,1.5c-.9,5.3-2,10.6.8,15.8v39.9c0,5.6.3,11.3-.1,16.9-.2,3.8.9,6.3,4.1,8.1Z"/>
    <path id="Trazado_862" data-name="Trazado 862" class="cls-152" d="M238.9,251.8c-1.7,0-3.3.3-2.9,2.6s2.1,2.5,3.9,1.6S240.5,252.9,238.9,251.8Z"/>
    <path id="Trazado_863" data-name="Trazado 863" class="cls-153" d="M236,230.4a2.5,2.5,0,0,0,2.3,2.5,1.3,1.3,0,0,0,1.4-1.3v-.4a2.8,2.8,0,0,0-2.4-2.7C236.5,228.5,236,229.3,236,230.4Z"/>
    <path id="Trazado_864" data-name="Trazado 864" class="cls-154" d="M238,244.7a1.6,1.6,0,0,0,1.6-1.6c-.1-1.4-.7-2.6-2.3-2.6s-1.4.8-1.3,1.8A2.5,2.5,0,0,0,238,244.7Z"/>
    <path id="Trazado_865" data-name="Trazado 865" class="cls-155" d="M237.6,263.9c-1.5.2-1.7,1.2-1.6,2.2s.6,2.4,2,2.4,1.9-1.2,1.7-2.5A2.3,2.3,0,0,0,237.6,263.9Z"/>
    <path id="Trazado_866" data-name="Trazado 866" class="cls-156" d="M234.1,152.9V198c3.2-2.6.6-6.1,2.7-8.1s1.2-5.6,1.4-8.4.7-3.9,3.5-2.4c4.4,2.5,9.3,4.3,13.2,7.7,3.7,1.3,5.1,3.8,4.8,7.6a58.6,58.6,0,0,0-.1,5.9q-.2,3.4,0,6.9c.2,2-.4,4.3,1.4,6l1.9-1.3c2.8-3.9.9-8.3,1.5-12.4.3-2.3-1.1-5.4.9-6.6s4,1.5,6.1,2.4c5,2.4,9.3,6.3,15,7.6h.8c3.9-3.5,7.9-6.9,11.7-10.5,1.6-1.4,2.5-1.3,3.4.6s1.7,3.1,2.6,4.7c.1-12.2.3-24.4.4-36.6,0-1.8-.6-3.7.8-5.2l-18.7-11c-2.1,1.5-1.7,3.8-1.7,5.9-.1,6.8,0,13.6,0,20.4a33.9,33.9,0,0,1-.2,4.5c-.2,1.4-.2,3.3-2.2,3.4s-2.6-1.3-3.1-2.8-.4-5.6-1.1-8.3-1.2-6.9-1.8-10.3-.8-6-4.4-6.9c-2.2,3.1-1,6.7-1.3,10.2s.1,4.6,0,6.9.5,3.6-1.5,3.8-3.3-1.7-3.4-3.7c-.1-8.6-.9-17.2.6-25.8.1-1.6-.8-2.1-2.2-1.9a2.7,2.7,0,0,0-2.1,2.5c-.6,3.2,0,6.6-.4,9.8-.2,1.6.8,4.3-2.5,4.1s-2,2.1-2.1,3.6c-.3,5.2-.3,5.2-4.9,2.9l-1.3-.6c-2.3-1.2-4.3-2.7-7.3-2.5-5.3.5-6.9-3.5-8.5-7.5A1.5,1.5,0,0,0,234.1,152.9Z"/>
    <path id="Trazado_867" data-name="Trazado 867" class="cls-157" d="M362.8,296.6c2.9,1.9,5.7,4,9.1,5,.9-6.3-1.5-12.1-2.6-18-3.2-16.3-6.7-32.5-10.2-48.7a23.9,23.9,0,0,0-1.5-3.7c-2.8,4.8-5.1,8.8-6.3,13.4s1.8,8.9-.1,13.5a23.7,23.7,0,0,0-.4,16.6,6.6,6.6,0,0,1-.8,5.3c-.9,1.3-2.7,2.6-1.4,4.3s3.7.2,6-.3c-.6,1.8-2.4,2.5-2.6,4.1C354.4,292.5,359.6,293.3,362.8,296.6Z"/>
    <path id="Trazado_868" data-name="Trazado 868" class="cls-158" d="M362.8,296.6c-2-4.5-7-5.1-10.4-7.8-1.9-2.7-5-3.9-7.7-5.4s-5.1-4.7-6.7-8.2c-2.6-5.1-3-10.4-3.1-15.8s1.9-7.4,5.6-7.6c-1.2-2.3-2.5-4.6-3.6-7s-3.5-6.2-8.2-3.4-3.5-2.3-5.2-3.6-3.7-5.1-5.2-7.8c-.7-1.2-1.4-2.7-2.9-2s-1.2,2.3-.9,3.6.9,2.5,1.3,3.8c1,3.5,1.1,6.8-1.1,10s-2.1,5.1-.1,7.8,1.1,4.1,1.4,6.2c.6,5.4,2.1,10.4,7.2,13.4,1.1.8,2.5,1.5,2.9,2.9l33,19.5C360.2,295.9,361.3,296.8,362.8,296.6Z"/>
    <path id="Trazado_869" data-name="Trazado 869" class="cls-159" d="M323.2,272.8c-4.3-4.7-4.8-10.7-6.4-16.5s-1.4-10,1.1-15.2c1.2-2.3-.2-6.1-1.8-8.9-.7-1.1-1.3-2.2-.1-3.9,2.3,3.5,3.4,7.8,7.5,9.5-5.6-11.9-10.8-23.8-17.2-35.3a12.4,12.4,0,0,0-1.2,5.3c.1,17,.1,33.9,0,50.8,0,2.8.7,4.8,3.3,6.1C313.4,267.3,317.9,270.8,323.2,272.8Z"/>
    <path id="Trazado_870" data-name="Trazado 870" class="cls-160" d="M340.6,251.8l-2.9-1.9c-.9-.7-2.3-1-2.2.3.4,4.1-2.7,7.3-1.8,11.9s1.4,7.5,2.2,11.4c2.2,9.4,9.6,11.8,16.5,15.3a7.4,7.4,0,0,1,3.2-3.1c1.2-.7,2.3-1.8,1.2-3.1s-2.4-.8-3.6,0l-1.9,1.6a1.4,1.4,0,0,1-2-.1c0-.1-.1-.1-.1-.2a1.3,1.3,0,0,1,.3-1.7h.1c4.3-2.8,2.9-6.6,1.9-10.2a19.1,19.1,0,0,1,.4-11.1c1.8-5.2,3.1-11-.6-16.3l-4.5,8.7c-.7,1.2-.5,3.3-2.4,3.2s-2-1.9-2.8-3.1Z"/>
    <path id="Trazado_871" data-name="Trazado 871" class="cls-161" d="M342.3,328.8c1-10.7-2-19.5-11.3-25.9-5.7-4-10.6-2.8-12.2,3.9s.6,13.3,5.4,16.1l3.1-2.1c.5-2.2,0-4.3.3-6.5s.3-2.4,1.6-2.8,2.3.9,2.9,2c2,3.2,1.8,6.5.1,9.8-3.8-.9-3.2,3.9-5.9,4.5L329,330C334.4,334,337.3,333.8,342.3,328.8Z"/>
    <path id="Trazado_872" data-name="Trazado 872" class="cls-162" d="M396.6,306.2v-9.6c.1-2.9-2.4-3.8-4.1-4.2s-5-1.1-7-2.9-2.3-.8-2.4.3c-.2,3.1-1.8,6.9,1.3,9.3S392,303.6,396.6,306.2Z"/>
    <path id="Trazado_873" data-name="Trazado 873" class="cls-163" d="M400,280.6c-1.1,8.4,2.8,13.9,11.2,15.9.7.2,1.3.3,1.8-.2,2-2-.4-10.7-3-12.2s-3.6.1-5.2-1.2A8,8,0,0,0,400,280.6Z"/>
    <path id="Trazado_874" data-name="Trazado 874" class="cls-164" d="M413.3,309.4c.8-4.6-1.1-7.5-6.5-7.6-.5-.1-.9-.5-1.4-.5s-4.3-4.2-5.4-1.2-2.2,7.7,2.7,9.8a53.9,53.9,0,0,1,5.2,3C413.3,316,413.3,316,413.3,309.4Z"/>
    <path id="Trazado_875" data-name="Trazado 875" class="cls-87" d="M404.7,261.3a2.3,2.3,0,0,0,2.2,2.4h.3c.8,0,2-.4,1.6-1.3s-.4-2.7-2.2-2.9S404.9,260.2,404.7,261.3Z"/>
    <path id="Trazado_876" data-name="Trazado 876" class="cls-131" d="M360.1,180.7c1,.1,2.1,0,1.8-1s-2-3.7-4.1-3.6a4.5,4.5,0,0,0-4.1,3.1c-.5,1.2.7,1.8,1.8,1.4S358.6,179.8,360.1,180.7Z"/>
    <path id="Trazado_877" data-name="Trazado 877" class="cls-165" d="M355.1,345.2c0-3.2,2.1-6.3.1-9.6-.6-.8-.9-1.9-2.2-1.6a3.5,3.5,0,0,0-2,1.4C349.8,337.4,352.6,344,355.1,345.2Z"/>
    <path id="Trazado_878" data-name="Trazado 878" class="cls-166" d="M369.4,328.5c1.5,2.5.6,7,3.9,7.7s3.4-3.4,3-5.9-1.7-5.3-5-5.3S369.6,326.9,369.4,328.5Z"/>
    <path id="Trazado_879" data-name="Trazado 879" class="cls-167" d="M350.5,323.7c1.2-.3,2.6-1,3.7-.8s3.4,1.5,4-1-.6-4.5-2.7-5.9-2.7.8-4.2,1.5c-3.6,2.1-2.2,4-.8,6.2Z"/>
    <path id="Trazado_880" data-name="Trazado 880" class="cls-168" d="M379.7,354.5a14.1,14.1,0,0,0-6.5-11c-1.5-.9-3.3-2-5.1-.8a5.4,5.4,0,0,0-2.4,5.7c.9,4.1,2.6,7.9,6.2,10.4,1.7,1.2,3.5,1.9,5.6,1.1S379.5,356.7,379.7,354.5Z"/>
    <path id="Trazado_881" data-name="Trazado 881" class="cls-169" d="M260,156.9l.2,3c5-2.6,3.6-7.1,3.8-11.1,0-1.8-.1-3.6,0-5.4s.9-3.4,3-1.5a1.3,1.3,0,0,0,.5,1.7h.1c3.3,1.3,4.5,4.3,5.6,7.3,3.5,5.1,3,11.3,4.5,17,3-4.4,3-23.7-.1-28l-16.9-10.8c-7-2.7-12.9-7.5-19.6-10.8-2-1-3.9-3.4-6.2-2s-.8,4.2-1.1,6.4-.2,3-.3,4.4c-.2,5.3-1.1,10.7.3,16,.1,3.2.1,6.5.2,9.8h1.9c1.2-.9,1.1-2.3,1.3-3.6s-.6-4.1,1.8-4.7,4.8,1.1,6.7,2.7.4,5.1,3.4,4.8,1.2-4.5,3.1-6.1c4-.3,5.8,1.9,6.4,5.3C259,153.2,258.4,155.3,260,156.9Z"/>
    <path id="Trazado_882" data-name="Trazado 882" class="cls-170" d="M277.6,139.9c1,9.3.4,18.7.1,28,.2,2.1.3,4.2.3,6.4s1.2,4.7,3.2,6.3,4.9,1.7,5.4-2,.4-6.6.4-9.9c.1-7.9.2-15.8.4-23.7C285.5,140.6,282.2,139,277.6,139.9Z"/>
    <path id="Trazado_883" data-name="Trazado 883" class="cls-171" d="M233.8,143.1l-.3-16a25.4,25.4,0,0,0-1.1,9.6c.6,4.4-3.5,7.8-5.1,11.9-.8,2.1-3.5,1.1-5.4,1.3v12c0,8.7,0,8.7,5.5,17.6,2.9-2.9,5-5.9,4.6-10.4-.2-3-1.1-6.2.9-9.1C233.5,154.3,232.1,148.6,233.8,143.1Z"/>
    <path id="Trazado_884" data-name="Trazado 884" class="cls-172" d="M332.2,323.3c4.5-1.2,2.4-4.8,2.4-7.3s-1.5-3.2-2.5-4.7-.9-2.8-2.8-2.1-3.1,1.3-3,3-1,5.9,1,8.6C329.6,320.3,331.4,320.9,332.2,323.3Z"/>
    <path id="Trazado_885" data-name="Trazado 885" class="cls-173" d="M149.6,113c.7-2.5-2.6-6.3-6.3-6.7s-1.2,1.5-.7,2.5Z"/>
    <path id="Trazado_886" data-name="Trazado 886" class="cls-174" d="M263.1,214c0,1.3-.1,2.6-.1,3.9,0,14.1,0,14.1,12.3,20.6,2.1,1.1,4,2.4,6.1,3.5s2.2,2.4,3.9,1.4.8-2.8.8-4.2V205.9c-2.9-.1-4.2,2.4-6,3.9s-3.1,3-4.7,4.5a19,19,0,0,1-5.9,3.7c-3.3,1.2-3-3-5-3.9A1.7,1.7,0,0,0,263.1,214Z"/>
    <path id="Trazado_887" data-name="Trazado 887" class="cls-175" d="M263.1,214l.4.3c2,1.7,2.1,6.3,4.3,5.9s6-3.1,8.6-5.2,6.5-6,9.7-9.1c.1-1,.2-2,.2-3-6.3-5.1-13.9-8.2-20.7-12.4-2.5-1.6-2.5,1-2.5,2.6-.1,6.3-.1,12.5-.2,18.8C263,212.6,263,213.3,263.1,214Z"/>
    <path id="Trazado_888" data-name="Trazado 888" class="cls-176" d="M261,213.2l-.3-6.1c-2.9,1.1-2.2,4.4-3.8,6.5s-5.1,6.5-10,6.2a2.6,2.6,0,0,0-2.1,1.1l.3,2,10.6,5c3.6,1.7,5.4.7,5.3-3.4Z"/>
    <path id="Trazado_889" data-name="Trazado 889" class="cls-177" d="M260.6,199.7a36.9,36.9,0,0,1,.4-5.8c.8-4.8-1.4-7.4-5.9-8.2-1.6,5.5-6.8,7.7-10.9,10.8s-4.7-1.5-7-2.4v15.8c3.2,3.4,6.7,2.6,9.9.5s6.7-6.4,11.1-8.2a2.3,2.3,0,0,0,1.3-2C259.6,199.3,259.4,197.9,260.6,199.7Z"/>
    <path id="Trazado_890" data-name="Trazado 890" class="cls-35" d="M260.6,199.7l-1-3.7c-.2,3.4-1.3,6-5.1,6.8-2.2.4-3.5,2.4-4.9,4-3.4,4-7.5,5.1-12.4,3.1-.5,7.6-.1,8.2,7.6,11,9.4,1.5,12.9-4.1,15.9-13.8A20.4,20.4,0,0,0,260.6,199.7Z"/>
    <path id="Trazado_891" data-name="Trazado 891" class="cls-178" d="M237.2,194.1q3.2,8.1,9.9,2.1a35.7,35.7,0,0,1,5.4-4.2c2.8-1.5,3.6-3.5,2.6-6.3-4.3-4.6-10.6-5.9-15.6-9.3-1.8-1.3-2.6.4-2.6,2.2,0,3.7-.1,7.5-.1,11.3C236.9,191.3,237,192.7,237.2,194.1Z"/>
    <path id="Trazado_892" data-name="Trazado 892" class="cls-179" d="M273.2,150.9c2.5-6.1-3.6-6.3-6.2-9-1.9-.2-2.1,1-2.1,2.5,0,8.1-.1,16.2,0,24.3,0,2.1,4.8,6.3,6.8,6.1s1.2-2,1.3-3.1C273.1,164.8,273.2,157.8,273.2,150.9Z"/>
    <path id="Trazado_893" data-name="Trazado 893" class="cls-180" d="M260,156.9c-.7-4.2,1.7-9.4-4.3-11.9a10.4,10.4,0,0,0-4.6-1.1,139.9,139.9,0,0,0-1.7,14.5,7,7,0,0,0,1.8,5.4c7.9,3.9,7.8,3.9,8-4.7A9.7,9.7,0,0,1,260,156.9Z"/>
    <path id="Trazado_894" data-name="Trazado 894" class="cls-181" d="M251.2,163.8c0-6.6-.1-13.2-.1-19.9-2.5,2-.1,5.2-2.2,7.9-.9-4-2.6-6.9-6.5-8.2s-6.4-.6-6.5,4.4v4.9c-.8,2.9,1.6,5.1,2,7.8s4.8.9,6.3.7C247.6,160.7,249,163,251.2,163.8Z"/>
    <path id="Trazado_895" data-name="Trazado 895" class="cls-157" d="M347.5,256.7a1.2,1.2,0,0,0,1.4.9c1.6-.1,1.4-1.5,1.4-2.6s-.3-1.8-1.3-1.6S347.4,254.8,347.5,256.7Z"/>
    <path id="Trazado_896" data-name="Trazado 896" class="cls-182" d="M372,326.9c-1.1.2-1.5.8-1.1,1.8s.9,2.6,2.5,2.7,1.1-1.1,1-1.9A2.4,2.4,0,0,0,372,326.9Z"/>
    <path id="Trazado_897" data-name="Trazado 897" class="cls-183" d="M368.8,346.1c-.6,3.6-.8,6.4,2,8.6s3.2,1.7,4.6.8a3.8,3.8,0,0,0,1.7-4.3c-.4-1.3-.7-3.1-3.3-2.3S370.8,347.3,368.8,346.1Z"/>
    <path id="Trazado_898" data-name="Trazado 898" class="cls-184" d="M246.1,153.4c-.4-1.7.9-4.2-1.5-5.6s-3.8-4-6.7-2.7c-1.3.7-.1,10,1.3,11.3a20,20,0,0,0,2.4,1.6c3.1,2.2,4.9,1.9,4.5-2.4A16,16,0,0,1,246.1,153.4Z"/>
  </g>
</svg>
