<?xml version="1.0" encoding="utf-8"?>
<!-- Generator: Adobe Illustrator 24.2.0, SVG Export Plug-In . SVG Version: 6.00 Build 0)  -->
<svg version="1.1" id="Capa_1" xmlns="http://www.w3.org/2000/svg" xmlns:xlink="http://www.w3.org/1999/xlink" x="0px" y="0px"
	 viewBox="0 0 500 137.5" style="enable-background:new 0 0 500 137.5;" xml:space="preserve">
<style type="text/css">
	.st0{fill:#1D1D1B;}
</style>
<g transform="translate(0.000000,1280.000000) scale(0.100000,-0.100000)">
	<path class="st0" d="M2873.2,12309.9c-23.9-1.4-44.3-4.8-64.6-10.5c-92.5-26.3-165.9-97.1-195.6-188.7c-6.6-20.4-10.6-40.7-13-65.3
		c-0.7-8-0.7-36.9,0-44.9c3.7-39.9,13.2-73.5,29.9-106.5c43.4-85.7,126.7-144.5,220.9-156c14.1-1.8,19.2-2,35.7-2
		c16.5,0,21.6,0.3,35.7,2c82.4,10.1,157.5,56.8,203.8,126.8c24.7,37.4,40.2,79.1,45.5,122.6c1.8,14.1,2,19.2,2,35.7
		c0,16.5-0.3,21.6-2,35.7c-10.6,86.8-61.8,165.2-137.6,210.6c-37.7,22.7-77.5,35.6-122.5,39.9
		C2904.6,12309.7,2879.2,12310.2,2873.2,12309.9z M2909.1,12270.4c40.6-3.9,77.4-16.6,111.5-38.5c60.1-38.5,101.6-102.8,111.8-172.9
		c2-13.5,2.4-20.5,2.4-36.1c0-18.7-1.2-31.8-4.4-48c-15.6-78.2-68-144.6-140.7-178c-25.3-11.6-51.2-18.5-80.8-21.5
		c-10.3-1.1-34.6-1.1-44.9,0c-37.7,3.8-69.5,14-101.5,32.3c-57.9,33.1-100.9,90.1-117.2,154.7c-5.3,21.2-7.3,37.7-7.3,60.6
		c0,15.6,0.4,22.7,2.4,36.1c8.4,58,38.2,112.4,83,151.3c42.4,36.9,95.2,58.1,151.3,61C2881.5,12271.6,2902.1,12271.1,2909.1,12270.4
		z"/>
	<path class="st0" d="M2884.4,12217.6c-6.2-0.8-12.3-5.4-15.2-11.4l-1.4-3.1l-0.2-91.1c-0.2-72.1-0.4-91.4-0.8-92.1
		c-1.8-3.2-6.4-3.1-8.1,0.2c-0.4,0.7-0.5,21.7-0.5,76.2c0,53.6-0.1,75.9-0.5,77.6c-1.2,5.7-5.7,11.5-10.8,14
		c-9.8,4.8-21.6,0.5-26.4-9.6l-1.6-3.4l-0.3-105.3c-0.2-75.6-0.4-105.9-0.7-107.3c-1.3-5.2-3.4-8.9-6.3-10.9c-4.9-3.5-11.8-1-17,6
		c-0.9,1.2-10.5,19.1-21.5,39.9c-11,20.7-20.7,38.8-21.6,40.2c-3.7,5.6-10.6,10.2-17.6,11.8c-4.8,1.1-12.4,0.7-17.9-0.9
		c-3.6-1-14.8-6.2-15.3-7c-0.1-0.2,3.7-9.3,8.5-20.2c13.9-31.8,28.6-65.4,39.7-90.7c5.7-12.9,11.9-27,13.7-31.3
		c5.6-12.7,9.6-19.2,15.9-25.6c8.7-8.7,19.9-14.1,32.5-15.7c5.5-0.7,133-0.7,138.7,0c22.9,2.7,41.3,19.5,46.6,42.6l1,4.3l0.1,118.7
		c0.1,80.1,0,119.5-0.3,121.2c-1,5.3-4.4,10.1-9,12.4c-3.4,1.8-8.5,2-12.2,0.6c-3.6-1.3-7.1-4.7-9-8.4l-1.5-3l-0.2-62.6
		c-0.2-49.2-0.4-62.9-0.8-63.6c-0.9-1.5-2.4-2.4-4.3-2.4c-1.4,0-2,0.3-3.1,1.4l-1.3,1.4v83.1c0,89.9,0.1,86.4-2.4,91.3
		c-3.5,7-11.8,11.5-19.3,10.7c-7.8-0.9-14.6-6.4-16.9-13.6c-0.9-2.9-0.9-4-0.9-86.4c0-90.1,0.1-85.5-2.3-87.2
		c-1.2-0.8-3.6-0.9-4.9-0.3c-2.3,1.3-2.2-4-2.2,91.9c0,54.9-0.2,89.8-0.4,91.4C2904.9,12211.8,2895.2,12218.9,2884.4,12217.6z"/>
</g>
<g>
	<path class="st0" d="M250.3,124.6c-0.8,0.5-1.5,0.8-2.4,0.1c-24-15.9-38.5-38-43-66.5c-1.5-9.5-0.9-19.2-1.1-28.8
		c0-1.2,0.7-1.3,1.5-1.5c11.5-4.3,23-8.5,34.6-12.8c2.2-0.8,4.5-1.5,6.6-2.5c1.7-0.8,3.3-0.7,5.1,0c13.6,5.1,27.3,10.2,41,15.2
		c1.2,0.4,1.7,1,1.7,2.3c-0.1,3.6,0,7.1,0,12c0,1.6,0,3.3,0,4.9c2.5,0.4,4.9,1.2,7.2,2.2c0.4-7.5,0.1-14.9,0.2-22.4
		c0-2.7-0.7-3.7-3.2-4.6c-15.7-5.8-31.3-11.6-47-17.4c-1.5-0.6-2.9-0.6-4.3,0c-15.8,5.9-31.5,11.7-47.3,17.5c-2.4,0.9-3,1.8-3,4.4
		c0,4.3,0,8.6,0,14.1c-0.2,8.2,0.4,17.4,2.6,26.4c6.7,28.5,22.8,50.2,47.6,65.5c1.6,1,3.1,0.9,4.7-0.1c7.3-4.4,14-9.5,20-15.6
		c3-3,5.7-6.1,8.2-9.3c-2.4-0.7-4.7-1.8-6.9-3C266.4,112.3,258.9,119,250.3,124.6z"/>
	<path class="st0" d="M257.4,77.7c0-16.6,13-30.3,29.4-31.2c0.1-3.3,0.2-6.7,0.1-10c0-1.9-1.1-3.3-3-4c-3.6-1.3-7.2-2.7-10.8-4
		c-7.4-2.7-14.7-5.5-22.1-8.2c-1.2-0.4-2.3-0.6-3.5-0.2c-11.2,4.1-22.3,8.2-33.5,12.3c-1,0.4-1.9,0.8-2.5,1.8
		c-0.8,1.6-0.6,3,0.5,4.3c1,1.3,2.6,1.5,4.4,0.8c10.1-3.7,20.2-7.5,30.4-11.2c2.1-0.8,2.1-0.7,2.1,1.4c0,25.3,0,50.6,0,76
		c0,0.5,0,1,0,1.6c-0.8,0-1.2-0.4-1.5-0.8c-4.1-3.6-8-7.4-11.4-11.7c-6.9-8.6-11.7-18.2-14.7-28.8c-1-3.4-1.6-6.9-2.1-10.4
		c-0.3-2.3-2-3.5-4.2-3.3c-1.9,0.2-3.1,1.6-3,3.9c0.2,3,0.9,6,1.6,8.9c2.7,11.6,7.6,22.2,14.7,31.8c5.1,6.9,11.2,12.9,18.1,18.1
		c1.7,1.3,3.7,1.2,5.4-0.1c5.6-4.2,10.7-9,15.2-14.4C261,94.5,257.4,86.5,257.4,77.7z"/>
</g>
</svg>
