<svg xmlns="http://www.w3.org/2000/svg" viewBox="0 0 500 137.5"><defs><style>.a{fill:#fff;}</style></defs><title>Recurso 1</title><path class="a" d="M198.3,53.1c.9.8,1.8.2,2.7-.2,2.8-.6,5.7-.7,7.1-4,.6-1.4,2.4-1.4,3.8-1.6l2,.6c3.4,4.8,3.9,10.4,4.2,16,4.6,12.8,6.7,26.2,9.7,39.4,1.1,4.9-2.6,7.5-6.8,5.1-2.1-1.2-3.9-.7-5.7-.3l-19,4.4c-3.8.9-7.4.8-9.9-2.6s-4-1.1-5.9-.7c-8.5,1.7-11.5.2-13.1-8.3-.8-3.8-2.4-3.5-5.4-3.1-15.6,1.9-30.4,6.9-45.3,11.3A62.8,62.8,0,0,1,87.5,111c-15.8-2.9-24-12.8-23.8-28.9a179.2,179.2,0,0,1,1.7-19.4c1.3-11.6-3.2-20.5-12.5-27a50.8,50.8,0,0,0-7.8-4.5C30.6,24.7,14.7,21.9,0,15.9v-4c7.5,4.5,15.9,6.7,24.2,9.1S43.5,26.4,52,31.8c11.5,7.2,17.6,17,16.1,30.9-.6,5.5-1.2,10.9-1.7,16.4-1.6,16.6,7.4,27.8,23.9,29.7a68.3,68.3,0,0,0,16.9-.4c12.1-1.9,23.4-6.7,35.1-9.9,1.4-.4,4.3.3,3.5-2.9s-3-1.7-4.7-1.2c-8.8,2.6-17.5,5.4-26.4,7.9s-18.3,3.5-27.6,1.5S71.3,95.1,70.8,84.5a77.3,77.3,0,0,1,.8-14.4c3.5-23.4-4.4-37.3-26.3-46.6-4.5-1.9-9.1-3.3-13.7-4.8C20.9,15.2,9.6,13.5,0,6.9v-4c4.9,4.9,11.2,7,17.6,8.9s15.3,4.5,22.9,7a72.8,72.8,0,0,1,9.7,3.9c19.7,9.6,27.4,24.1,24.4,45.9a70.1,70.1,0,0,0-1.1,15.9c.7,9.5,4.9,14.5,14.3,16.6s18.2.9,27.1-1.6,19.8-5.1,29.1-9c5.6-2.4,11.2-4.7,17.2-5.9,2.4-.5,2-2.3,1.4-3.8A11.7,11.7,0,0,1,164.4,69c1.1-1.7,3.3-.8,4.6-2.1,2.8-.3,5.6.3,6.4-4.2.5-2.6,3.6-4.5,7.2-5.1,5.3-.9,10.4-2.9,15.6-4.5Zm-12.4,6.2c-7.4,1.7-8.3,3.1-6.8,10.2,2.7,11.7,5.3,23.3,8.1,35,1.2,5.1,3.1,6.4,8.2,5.3,6.7-1.4,13.3-3.2,20-4.5,2.7-.6,3-1.8,2.4-4.2l-8.4-35.4c-.5-2.5-1.1-5.1-1.4-7.6s-2.2-4-5.1-2.5l-1.9.2Zm-9.5,47.8c7.2-.1,8.2-1.4,6.7-8.4l-6-26.2c-.3-1.3-.3-3.3-1.6-3.4a14.4,14.4,0,0,0-9,2.2c-1.9,1.3-2.4,3.4-1.9,5.8,2,8.4,3.8,16.8,5.8,25.2C171.1,105.5,172.9,107.3,176.4,107.1Zm48.8-4c-3.9-16.6-7.8-33.6-11.8-50.5-.3-1.2-.9-2.9-2.5-2.5s-1.8,2.2-1.5,3.7c1.2,4.7,2.5,9.3,3.5,14,2.8,11.8,5.4,23.6,8.1,35.5.4,1.4.8,3.2,2.5,3.2S225.1,104.8,225.2,103.1Zm-72-6,10.5-2.4c2.8-.7,1.4-2.9,1.1-4.5s0-3.6-2.7-3L151,89.9a3.5,3.5,0,0,0-2.8,4.1C148.6,96.2,150.2,97.3,153.2,97.1Z"/><path class="a" d="M355.8,43.8c15.3-4.1,28.1-12.3,39-23.8A44.3,44.3,0,0,1,410,9.6c9.9-4,18.2-2.5,25.4,5.4s12.1,12.8,19.8,17.4c13.9,8.5,29,10,44.8,8.5v-3c-24.3,3.4-44.5-4-60.7-22.6C428.7,3,416.8,1.5,403,10.2a74.5,74.5,0,0,0-15,12.4C379.8,31,369.8,36.2,358.7,40c-6.8,2.3-14.2,1.2-20.8,4.1-4.2,1.8-5.4-.3-6.1-4-1.5-7.6-4.1-9.4-11.3-7.6-3.6.9-6.1,1.2-7-3.7s-5.6-5.5-7.5-2.5-4.9,3.6-7.9,4.3c-6.6,1.6-13.3,3.1-19.9,4.5-3.3.7-5.6,2.2-5.8,5.8s-4.6,3.3-7.4,4.1l-9.1,2.4c-2.6.9-4.4,2.4-4.5,5.4l1.2,1.8,2.4,1.1h3L270,53c.9-.6,1.8-1.4,3-.9s2.4,1.1,2.7,2.4c.8,3.4,1.5,6.9,2.2,10.4s1.3,5.4,2.1,8,.6,4.9-3.2,5.4a77,77,0,0,0-12.6,3c-2.6.7-5.6,2-4.6,5.4s3.9,3.2,6.6,2.6l13.2-2.9c1.5-.4,3-1.3,3.9,1.3s4.5,3.8,7.9,3l22.3-5.2c1.6-.4,3.2-1.1,4.7.2s3.7,1.8,5.5.4a5.1,5.1,0,0,0,1.8-5.9c-1.7-4,.6-4.9,3.8-5.3,4.7-.6,8.1-2.8,9.2-7.7-2-9.6-2-9.6,7.7-11.7,6.6-1.4,11.7-6.6,18.6-7.2l3-1.2c1.1-1.1,4.3-2,5.7-3.5,4.2-.8,7.8-2.9,11.3-5.3l1.1-.7c.7-1.8,2.5-2.2,3.8-3.3,6.4-6.1,12.4-12.6,20.2-16.9s15.2-3.8,21,3.1C449,42.1,472.1,51.1,500,47.9v-3c-8.5,1.7-16.9,1.1-25.3-.5-16.6-3.1-29.7-11.9-40.6-24.5-7.7-8.9-14.7-10.3-24.7-5.3-4.8,2.4-8.9,5.9-12.8,9.5-7.4,6.7-14.3,14-23.8,17.8a2.7,2.7,0,0,0-1.2,1H371c-4.4-.7-6.9,2.8-10.9,4l-3.7,1c-1.6.3-1.9-1-2.4-2.1S354.6,44.1,355.8,43.8Zm-83,5.1c-5.3,1.8-11,1.8-16.2,4.2-.4.2-1.7-.7-1.5-1.6s.8-2.6,2-2.5c5.1.2,9.7-1.9,13.3-2.3s3.1-.5,3.3.7S273.2,48.8,272.8,48.9Zm7.7,33.8c-5.8,1.7-11.7,3.2-17.9,3.1,5.5-3.5,11.9-3.9,18-5.5.3-.1.9.4,1.1.7S281.3,82.5,280.5,82.7Zm-.3-20.1c-.4-2.1,1.7-1.5,2.8-1.8l8.6-2c1.2-.2,2.7-.8,3.2,1.1a2.7,2.7,0,0,1-1.8,3.5,34.6,34.6,0,0,1-9.6,2.3C281.5,66.1,280.5,64.4,280.2,62.6ZM313,82.9c-6.7,1.4-13.3,2.9-20,4.5s-8,.5-8.9-6.4c-.1-1.1,0-2.3-.2-3.4-1.5-8.8-1.6-8.8,7-10.7a23.6,23.6,0,0,0,3.8-1c1.5-.5,4.6.1,3.6-2.7s1.1-8-4.7-8.1a2.7,2.7,0,0,1-2.6.7l-1.8.5c-2.2.6-4.4,1-6.6,1.7s-4-.2-4-3a7.5,7.5,0,0,1-.8-5.5l-.6-1.6-.3-2a4.6,4.6,0,0,1-.8-3.6c-1.4-2.5-.4-3.8,2.1-4.3,7.9-1.8,15.9-3.5,23.8-5.5,2.2-.5,3-.1,3.3,2.1,1.4,9.4,4.8,18.4,5.6,28.1.5,5.2,3.1,10.7,4.7,16.1C316.3,81.5,315.4,82.3,313,82.9Zm8.6,1c-1.9.5-2.4-1.3-2.7-2.7q-5.8-25.1-11.5-49.9c-.4-1.5-.4-3,1.6-3.5s2.2,2.4,2.5,3.9c2.7,11.2,5.3,22.5,7.9,33.8L322.7,80C323,81.5,323.5,83.3,321.6,83.9Zm2.9-11.1c-1-.5-1.1-1.6-1.3-2.5-2.4-10.3-4.7-20.6-7.1-30.8-.6-2.4-.2-3.6,2.5-4.2,7.9-1.7,9.6-1,11.6,7s3.2,15.7,5.6,22.8C335.8,69.8,328.2,74.6,324.5,72.8Zm24.4-20.9c-3.6,1.1-7.2,1.9-10.9,2.8s-2.5-1.8-2.8-3.2-1.4-3.7,1.3-4.4l10.6-2.6c2.4-.6,3.9.9,4.5,2.9S351.1,51.3,348.9,51.9Z"/><path class="a" d="M286.9,105.8h.7L301.1,119a1.7,1.7,0,0,1-.1,1.4,1.1,1.1,0,0,1-1.7.4c-4.5-4.4-8.9-8.8-13.2-13.3C285.4,106.8,286.3,106.1,286.9,105.8Z"/><path class="a" d="M235,120.8c-1.4,4.7-2.9,9.9-4.5,15.2-.2.8-.7,1.7-1.6,1.5s-1.2-1.4-.9-2.4c1.5-5.3,3-10.5,4.6-15.8.2-.9.5-2.1,1.9-1.6S235.3,119.2,235,120.8Z"/><path class="a" d="M222.2,6.3A2.4,2.4,0,0,1,223.9,8l6.9,14.3c.4.9.9,2.1-.1,2.7s-2-.5-2.5-1.5L221.4,9.1C220.9,7.9,220.6,6.8,222.2,6.3Z"/><path class="a" d="M249.8,16.9c-.2,1.3.9,3.4-1.3,3.5s-1.3-1.9-1.5-3.2c-.5-4.9-1.1-9.8-1.6-14.8-.1-1,0-2.2,1.2-2.4s1.5,1,1.6,2.1C248.7,7,249.3,11.9,249.8,16.9Z"/><path class="a" d="M271.8,116c1.3.1,1.5,1,1.8,1.8l5.7,14.9c.5,1.1,1,2.4-.6,2.8s-1.5-.9-1.9-1.8c-1.9-5-3.9-10-5.7-14.9C270.6,117.6,270.4,116.5,271.8,116Z"/><path class="a" d="M273.1,7.5c-1.3,4.5-2.8,9.7-4.2,15-.3.8-.7,1.6-1.7,1.4s-1.3-1.3-1-2.3l4.5-15.7c.3-.9.6-2.1,1.9-1.7S273.6,5.7,273.1,7.5Z"/><path class="a" d="M215.2,34.9c-.6,1.2-1.5,1-2.3.2L200.8,23.2c-.5-.5-1.1-1.3-.4-2.1a1.5,1.5,0,0,1,2.2.2l12.1,11.8C215,33.5,215.7,34,215.2,34.9Z"/><path class="a" d="M174.2,77.9c1.4,0,1.5,1,1.7,2,1.3,5.2,2.5,10.3,3.7,15.5.2,1,.3,2.1-1,2.4s-1.4-.6-1.6-1.5c-1.3-5.5-2.6-11-3.8-16.5A1.4,1.4,0,0,1,174.2,77.9Z"/><path class="a" d="M174.7,96.7c.1.9.2,1.8-.8,2.1s-1.6-.7-1.9-1.7c-1.2-5.3-2.5-10.6-3.7-16-.2-.8-.2-1.7.8-2s1.6.7,1.9,1.6C172.2,86.1,173.4,91.4,174.7,96.7Z"/><path class="a" d="M326.9,61.6c-.1,1,.2,1.9-1,2.1s-1.4-.5-1.6-1.4l-3.9-16c-.2-1-.4-2.1.9-2.4s1.5,1,1.8,1.9C324.8,51,324.7,56.7,326.9,61.6Z"/><path class="a" d="M331.7,60.9c-.2.9-.3,1.8-1.3,1.9s-1.2-1-1.4-1.8c-1.2-5.3-2.5-10.6-3.7-15.9-.2-.8-.3-1.7.6-2.1s1.7.6,1.9,1.5C329.2,50,330.4,55.4,331.7,60.9Z"/></svg>