<svg id="Capa_1" data-name="Capa 1" xmlns="http://www.w3.org/2000/svg" viewBox="0 0 150 150">
  <defs>
    <style>
      .cls-1 {
        fill: #3457db;
      }
    </style>
  </defs>
  <g>
    <path class="cls-1" d="M33.3,67.5v11a6.9,6.9,0,0,1-6.9,6.9,7,7,0,0,1-5.6-2.8,2.5,2.5,0,0,0,1.2.2,4.4,4.4,0,0,0,4.4-4.3v-11a2.8,2.8,0,0,1,.1-.9A3.3,3.3,0,0,1,29.8,64,3.5,3.5,0,0,1,33.3,67.5Z"/>
    <path class="cls-1" d="M33.4,83.5a.4.4,0,0,1-.1.3,5.1,5.1,0,0,1-.9,1.6,10.6,10.6,0,0,1-1.9,2.3,11.9,11.9,0,0,1-4.1,2.6,12.3,12.3,0,0,1-4.7.9,13.4,13.4,0,0,1-4-.6A12,12,0,0,1,13,87.7a10.6,10.6,0,0,1-1.9-2.3A12.7,12.7,0,0,1,9,78.5V58.8a8.7,8.7,0,0,1,8.6,7.6,4.1,4.1,0,0,1,.1,1.1v11h0a8.7,8.7,0,0,0,3.5,6.9,8.4,8.4,0,0,0,5.2,1.8,8.8,8.8,0,0,0,5.2-1.8,13.7,13.7,0,0,0,1.7-1.7Z"/>
    <g>
      <path class="cls-1" d="M45,70.7v7.7c0,2.4,1.4,4.1,3.9,4.1a4.1,4.1,0,0,0,4-4.3V70.7h2.9V85.1H53.1V83a6.2,6.2,0,0,1-5,2.3c-3.5,0-6-2.5-6-6.9V70.7Z"/>
      <path class="cls-1" d="M70.8,85.1V77.4c0-2.5-1.4-4.2-3.9-4.2a4.1,4.1,0,0,0-4,4.3v7.6h-3V70.6h2.7l.2,2.1a6.5,6.5,0,0,1,4.8-2.3c3.5,0,6.2,2.5,6.2,6.9v7.8Z"/>
      <path class="cls-1" d="M81,66.4a1.9,1.9,0,1,1-3.7,0A1.9,1.9,0,0,1,81,66.4Zm-3.4,4.2V85.1h3V70.6Z"/>
      <path class="cls-1" d="M96.2,70.6,99.7,82l3.5-11.4h3.3l-5,14.5H98l-1.6-4.8-1.4-5-1.5,5-1.6,4.8H88.4L83.3,70.6h3.4L90.2,82l3.5-11.4Z"/>
      <path class="cls-1" d="M111.1,79c.2,2.2,2,3.6,4.6,3.6a6,6,0,0,0,4.2-1.5l1.9,1.9a8.4,8.4,0,0,1-6.1,2.4c-4.7,0-7.7-3-7.7-7.6a7.1,7.1,0,0,1,7.5-7.5c4.6,0,7.7,2.8,7.2,8.7Zm8.7-2.6c-.2-2.2-1.8-3.4-4.2-3.4a4.3,4.3,0,0,0-4.5,3.4Z"/>
      <path class="cls-1" d="M128.7,64.6v8.3a6.1,6.1,0,0,1,5-2.6c4.2,0,7.3,2.6,7.3,7.6s-3.2,7.5-7.3,7.5a5.9,5.9,0,0,1-5-2.6l-.2,2.3h-2.8V64.6Zm.2,13.3a4.5,4.5,0,0,0,4.6,4.7,4.5,4.5,0,0,0,4.5-4.7,4.4,4.4,0,0,0-4.5-4.7A4.5,4.5,0,0,0,128.9,77.9Z"/>
    </g>
  </g>
</svg>
