<svg id="Capa_1" data-name="Capa 1" xmlns="http://www.w3.org/2000/svg" viewBox="0 0 150 150">
  <defs>
    <style>
      .cls-1 {
        fill: #3457db;
      }
    </style>
  </defs>
  <g>
    <path class="cls-1" d="M118.8,47.8V87.6a25.2,25.2,0,0,1-45.3,15.1,16.1,16.1,0,0,0,4.4.6A15.7,15.7,0,0,0,93.6,87.6V47.8a13.6,13.6,0,0,1,.4-3,12.6,12.6,0,0,1,24.8,3Z"/>
    <path class="cls-1" d="M119.2,105.9l-.4.9a42.4,42.4,0,0,1-3.3,5.9,43.4,43.4,0,0,1-7,8.4,46.6,46.6,0,0,1-31.6,12.6,46.1,46.1,0,0,1-38.7-21,45.9,45.9,0,0,1-7.4-25.1V16.3A31.5,31.5,0,0,1,62,43.9c.1,1.3.2,2.6.2,3.9v40a31.4,31.4,0,0,0,12.6,24.9,31.4,31.4,0,0,0,37.7,0,31.3,31.3,0,0,0,6.3-6.3Z"/>
  </g>
</svg>
