<svg id="Capa_1" data-name="Capa 1" xmlns="http://www.w3.org/2000/svg" viewBox="0 0 150 150">
  <defs>
    <style>
      .cls-1 {
        fill: #3457db;
      }
    </style>
  </defs>
  <g>
    <path class="cls-1" d="M91.9,43.9V59.3a9.6,9.6,0,0,1-9.6,9.6,9.9,9.9,0,0,1-7.8-3.8l1.7.2a6,6,0,0,0,6.1-6V43.9a3.7,3.7,0,0,1,.1-1.1,4.8,4.8,0,0,1,9.5,1.1Z"/>
    <path class="cls-1" d="M92.1,66.3c0,.1-.1.2-.2.4a9.4,9.4,0,0,1-1.2,2.2A21.6,21.6,0,0,1,88,72.2a19,19,0,0,1-5.7,3.6A17.5,17.5,0,0,1,75.8,77a16.9,16.9,0,0,1-5.6-.9,18.3,18.3,0,0,1-6.6-3.9,21.6,21.6,0,0,1-2.7-3.3,17.4,17.4,0,0,1-2.8-9.6V31.8a12.3,12.3,0,0,1,12,10.7c0,.4.1.9.1,1.4V59.3h0A11.8,11.8,0,0,0,75,68.9a11.8,11.8,0,0,0,14.5,0,9.1,9.1,0,0,0,2.4-2.4A.2.2,0,0,0,92.1,66.3Z"/>
    <g>
      <path class="cls-1" d="M10.2,97.6v10.8c0,3.4,1.9,5.7,5.4,5.7s5.5-2.7,5.5-6V97.6h4.2v20.1H21.5l-.2-2.9a8.6,8.6,0,0,1-6.9,3.2c-4.9,0-8.4-3.5-8.4-9.6V97.6Z"/>
      <path class="cls-1" d="M46.1,117.7V106.9c0-3.4-1.9-5.8-5.4-5.8s-5.6,2.8-5.6,6.1v10.5H31V97.6h3.8l.2,2.9a8.5,8.5,0,0,1,6.7-3.2c4.9,0,8.6,3.4,8.6,9.6v10.8Z"/>
      <path class="cls-1" d="M60.3,91.7a2.6,2.6,0,1,1-5.1,0A2.6,2.6,0,0,1,60.3,91.7Zm-4.7,5.8v20.2h4.2V97.5Z"/>
      <path class="cls-1" d="M81.6,97.6l4.8,15.8,4.9-15.8H96l-7,20.2H84.1l-2.3-6.7-2-7-1.9,7-2.4,6.7H70.7L63.6,97.6h4.7l4.9,15.8L78,97.6Z"/>
      <path class="cls-1" d="M102.3,109.2c.4,3.1,2.9,5.1,6.5,5.1,2,0,4.6-.8,5.8-2.2l2.7,2.7a12.3,12.3,0,0,1-8.6,3.4c-6.5,0-10.7-4.2-10.7-10.7s4.2-10.4,10.4-10.4,10.8,3.9,10.1,12.1Zm12.2-3.5c-.3-3.2-2.6-4.9-5.9-4.9a5.9,5.9,0,0,0-6.2,4.9Z"/>
      <path class="cls-1" d="M126.9,89.2v11.5c1.3-2.3,4.6-3.5,7-3.5,5.7,0,10.1,3.6,10.1,10.4s-4.4,10.5-10.2,10.5a7.7,7.7,0,0,1-6.9-3.6l-.3,3.2h-3.9V89.2Zm.2,18.4a6.3,6.3,0,0,0,6.4,6.6c3.5,0,6.3-2.5,6.3-6.6a6.1,6.1,0,0,0-6.3-6.5A6.3,6.3,0,0,0,127.1,107.6Z"/>
    </g>
  </g>
</svg>
